<svg width="7" height="7" viewBox="0 0 7 7" xmlns="http://www.w3.org/2000/svg">
<path d="M5.83333 4.85352C5.83333 4.8201 5.83029 4.79579 5.82422 4.7806C5.81814 4.76541 5.7908 4.74034 5.74219 4.7054C5.69358 4.67046 5.63205 4.63249 5.55762 4.59147C5.48318 4.55046 5.41102 4.5102 5.34115 4.4707C5.27127 4.43121 5.20215 4.39323 5.13379 4.35677C5.06543 4.32031 5.02214 4.29753 5.00391 4.28841C4.98872 4.2793 4.95985 4.25955 4.91732 4.22917C4.87478 4.19878 4.83681 4.176 4.80339 4.16081C4.76997 4.14562 4.73806 4.13802 4.70768 4.13802C4.66211 4.13802 4.60666 4.16916 4.54134 4.23145C4.47602 4.29373 4.41602 4.36209 4.36133 4.43652C4.30664 4.51096 4.24816 4.57932 4.18587 4.6416C4.12359 4.70388 4.0727 4.73503 4.0332 4.73503C4.01194 4.73503 3.98687 4.72971 3.95801 4.71908C3.92914 4.70844 3.9056 4.69857 3.88737 4.68945C3.86914 4.68034 3.84332 4.66591 3.8099 4.64616C3.77648 4.62641 3.75521 4.6135 3.74609 4.60742C3.44531 4.44032 3.18707 4.24816 2.97135 4.03092C2.75564 3.81369 2.56272 3.55469 2.39258 3.25391C2.3865 3.24479 2.37359 3.22352 2.35384 3.1901C2.33409 3.15668 2.31966 3.13086 2.31055 3.11263C2.30143 3.0944 2.29156 3.07085 2.28092 3.04199C2.27029 3.01313 2.26497 2.98806 2.26497 2.9668C2.26497 2.9273 2.29612 2.87641 2.3584 2.81413C2.42068 2.75184 2.48904 2.69336 2.56348 2.63867C2.63791 2.58398 2.70627 2.52398 2.76855 2.45866C2.83084 2.39334 2.86198 2.33789 2.86198 2.29232C2.86198 2.26194 2.85438 2.23003 2.83919 2.19661C2.824 2.16319 2.80122 2.12522 2.77083 2.08268C2.74045 2.04015 2.7207 2.01128 2.71159 1.99609C2.70247 1.97786 2.67969 1.93457 2.64323 1.86621C2.60677 1.79785 2.56879 1.72873 2.5293 1.65885C2.4898 1.58898 2.44954 1.51682 2.40853 1.44238C2.36751 1.36795 2.32954 1.30642 2.2946 1.25781C2.25966 1.2092 2.23459 1.18186 2.2194 1.17578C2.20421 1.1697 2.1799 1.16667 2.14648 1.16667C2.00065 1.16667 1.84722 1.20009 1.6862 1.26693C1.54644 1.33073 1.42491 1.47428 1.32161 1.69759C1.21832 1.9209 1.16667 2.11914 1.16667 2.29232C1.16667 2.34093 1.17046 2.39258 1.17806 2.44727C1.18566 2.50195 1.19325 2.54829 1.20085 2.58626C1.20844 2.62424 1.22211 2.67437 1.24186 2.73665C1.26161 2.79894 1.2768 2.84375 1.28743 2.87109C1.29807 2.89844 1.31706 2.94857 1.3444 3.02148C1.37174 3.0944 1.38845 3.13997 1.39453 3.1582C1.57682 3.65647 1.90571 4.14334 2.38118 4.61881C2.85666 5.09429 3.34353 5.42318 3.8418 5.60547C3.86003 5.61154 3.9056 5.62826 3.97852 5.6556C4.05143 5.68294 4.10156 5.70193 4.12891 5.71256C4.15625 5.7232 4.20106 5.73839 4.26335 5.75814C4.32563 5.77789 4.37576 5.79156 4.41374 5.79915C4.45171 5.80675 4.49805 5.81434 4.55273 5.82194C4.60742 5.82954 4.65907 5.83333 4.70768 5.83333C4.88086 5.83333 5.0791 5.78168 5.30241 5.67839C5.52572 5.57509 5.66927 5.45356 5.73307 5.3138C5.79991 5.15278 5.83333 4.99935 5.83333 4.85352ZM7 1.3125V5.6875C7 6.04904 6.87164 6.35818 6.61491 6.61491C6.35818 6.87164 6.04904 7 5.6875 7H1.3125C0.950955 7 0.641819 6.87164 0.385091 6.61491C0.128364 6.35818 0 6.04904 0 5.6875V1.3125C0 0.950955 0.128364 0.641819 0.385091 0.385091C0.641819 0.128364 0.950955 0 1.3125 0H5.6875C6.04904 0 6.35818 0.128364 6.61491 0.385091C6.87164 0.641819 7 0.950955 7 1.3125Z" />
</svg>
