<svg width="14" height="14" viewBox="0 0 14 14"  xmlns="http://www.w3.org/2000/svg">
<path d="M13.664 13.6664L13.6673 13.6658V8.77579C13.6673 6.38356 13.1523 4.54078 10.3557 4.54078C9.01121 4.54078 8.10898 5.27856 7.74065 5.97801H7.70176V4.76412H5.05009V13.6658H7.8112V9.25801C7.8112 8.09746 8.0312 6.97523 9.46843 6.97523C10.8845 6.97523 10.9057 8.29968 10.9057 9.33246V13.6664H13.664Z" />
<path d="M0.553981 4.76467H3.31843V13.6663H0.553981V4.76467Z" />
<path d="M1.9351 0.333008C1.05121 0.333008 0.333984 1.05023 0.333984 1.93412C0.333984 2.81801 1.05121 3.55023 1.9351 3.55023C2.81898 3.55023 3.53621 2.81801 3.53621 1.93412C3.53565 1.05023 2.81843 0.333008 1.9351 0.333008Z" />
</svg>
