<?xml version="1.0" encoding="utf-8"?><svg viewBox="0 0 123 29" xmlns="http://www.w3.org/2000/svg" xmlns:xlink="http://www.w3.org/1999/xlink"><style>:root>svg{display:none}:root>svg:target{display:block}</style><svg viewBox="0 0 90 29" id="airbnb" xmlns="http://www.w3.org/2000/svg"><g clip-path="url(#aclip0_34_585)"><path d="M25.8 20.343c-.142-.34-.274-.7-.415-1.006l-.653-1.46-.026-.027a288.838 288.838 0 00-6.212-12.667l-.088-.175c-.221-.411-.442-.866-.671-1.286-.282-.499-.556-1.033-1.006-1.54A4.67 4.67 0 0015.113.93a4.71 4.71 0 00-5.62 1.252c-.414.507-.723 1.041-1.005 1.54-.22.455-.441.9-.67 1.312l-.089.175c-2.162 4.2-4.27 8.468-6.212 12.667l-.053.053c-.194.455-.423.927-.644 1.434-.141.307-.282.64-.423 1.007a5.902 5.902 0 00.853 5.833 5.994 5.994 0 002.45 1.844c.965.392 2.016.53 3.05.397a7.438 7.438 0 002.805-.962c1.148-.639 2.25-1.566 3.486-2.904 1.235 1.338 2.364 2.265 3.485 2.913a7.441 7.441 0 003.547 1.006 6.022 6.022 0 003.941-1.445 5.926 5.926 0 002.015-3.655 5.155 5.155 0 00-.23-3.062v.008zm-12.671 1.453c-1.518-1.925-2.506-3.692-2.841-5.206a4.512 4.512 0 01-.088-1.714c.061-.446.229-.84.458-1.173.53-.76 1.456-1.233 2.471-1.233.482-.015.96.09 1.391.303.431.214.802.53 1.08.922.229.35.397.735.45 1.18.088.508.052 1.094-.089 1.715-.335 1.488-1.323 3.272-2.832 5.206zM24.37 23.09c-.1.721-.39 1.403-.838 1.979a4.197 4.197 0 01-1.72 1.302c-.671.28-1.412.359-2.136.28a5.557 5.557 0 01-2.135-.735 13.77 13.77 0 01-3.203-2.712c1.853-2.274 2.973-4.348 3.397-6.194.203-.875.23-1.662.141-2.388a4.814 4.814 0 00-.759-1.925 4.717 4.717 0 00-1.73-1.487 4.763 4.763 0 00-2.232-.507c-1.632 0-3.088.752-3.97 1.986a4.509 4.509 0 00-.75 1.933 5.711 5.711 0 00.141 2.388c.424 1.846 1.57 3.946 3.397 6.211a12.613 12.613 0 01-3.203 2.73c-.732.42-1.43.639-2.135.726a4.226 4.226 0 01-3.086-.823 4.157 4.157 0 01-1.608-2.738c-.088-.7-.027-1.4.256-2.186.088-.28.22-.56.361-.893.195-.455.424-.927.645-1.4l.035-.06A285.195 285.195 0 019.388 5.97l.088-.175c.22-.42.441-.866.67-1.286.23-.446.477-.875.795-1.225a2.95 2.95 0 014.491 0c.309.35.565.779.794 1.225.22.42.441.875.67 1.286l.089.175a345.543 345.543 0 016.176 12.606l.027.026c.23.455.423.963.644 1.4.141.341.282.613.37.901.168.788.256 1.487.168 2.187zm12.283-1.487a4.462 4.462 0 01-1.927-.406 4.426 4.426 0 01-1.559-1.195 5.7 5.7 0 01-1.412-3.919 6.058 6.058 0 011.465-4.007 4.673 4.673 0 011.618-1.21 4.711 4.711 0 011.982-.417 3.822 3.822 0 011.852.421 3.783 3.783 0 011.413 1.259l.088-1.374h2.577v10.568h-2.586l-.088-1.54a3.975 3.975 0 01-1.473 1.351c-.6.319-1.27.48-1.95.47zm.67-2.52c.512 0 .962-.14 1.385-.393a3.29 3.29 0 00.953-1.094c.22-.446.336-.98.336-1.574a2.97 2.97 0 00-.295-1.5 3 3 0 00-1.002-1.16 2.619 2.619 0 00-2.753 0 3.29 3.29 0 00-.953 1.094 3.483 3.483 0 00-.336 1.575 2.97 2.97 0 00.295 1.499 3 3 0 001.002 1.16c.415.254.865.394 1.368.394zm9.838-11.18c0 .307-.053.587-.194.814-.14.219-.335.42-.59.56-.257.14-.53.192-.813.192a1.69 1.69 0 01-.82-.192 1.618 1.618 0 01-.591-.56 1.582 1.582 0 01-.195-.814c0-.315.062-.594.195-.813.14-.263.344-.42.59-.56.257-.14.53-.201.821-.201a1.635 1.635 0 011.412.752c.129.255.192.537.185.822zm-3 13.385v-10.55h2.806v10.568h-2.814l.008-.018zm10.306-7.786v.035c-.132-.061-.309-.087-.44-.114-.177-.034-.319-.034-.486-.034-.785 0-1.377.227-1.765.7-.424.48-.618 1.154-.618 2.02v5.188h-2.814V10.729h2.585l.088 1.601c.283-.56.618-.98 1.094-1.295a2.753 2.753 0 011.597-.437c.203 0 .398.017.565.052.088.027.141.027.194.053v2.8zm1.13 7.786V6.398h2.806v5.687a4.442 4.442 0 011.411-1.207 4.464 4.464 0 012.883-.35 4.436 4.436 0 012.482 1.496 5.7 5.7 0 011.412 3.928 6.058 6.058 0 01-1.465 4.006 4.674 4.674 0 01-1.618 1.21 4.712 4.712 0 01-1.982.418 3.822 3.822 0 01-1.851-.422 3.782 3.782 0 01-1.414-1.258l-.088 1.373-2.576.027v-.018zm5.426-2.204c.503 0 .953-.14 1.377-.394a3.29 3.29 0 00.953-1.094c.229-.446.335-.98.335-1.574 0-.586-.106-1.12-.336-1.566a3.288 3.288 0 00-.952-1.094 2.619 2.619 0 00-2.753 0c-.397.28-.706.648-.962 1.094a3.483 3.483 0 00-.335 1.575 2.97 2.97 0 00.294 1.499c.227.466.573.866 1.003 1.16.414.254.864.394 1.376.394zm6.627 2.213V10.729h2.585l.088 1.373a3.482 3.482 0 011.335-1.248 3.52 3.52 0 011.789-.405 3.64 3.64 0 012.01.564c.599.38 1.072.926 1.36 1.57.31.665.477 1.488.477 2.406v6.334h-2.815v-5.966c0-.735-.168-1.312-.503-1.741-.335-.42-.794-.647-1.376-.647-.424 0-.794.087-1.121.28a2.191 2.191 0 00-.759.813c-.196.363-.293.77-.282 1.181v6.054H67.65zm11.047 0V6.39h2.814v5.686c.382-.51.878-.925 1.449-1.212a4.149 4.149 0 011.843-.441 4.46 4.46 0 011.926.406 4.424 4.424 0 011.559 1.195 5.718 5.718 0 011.403 3.919 6.05 6.05 0 01-1.465 4.007 4.673 4.673 0 01-1.618 1.21 4.71 4.71 0 01-1.982.417 3.82 3.82 0 01-1.851-.422 3.784 3.784 0 01-1.414-1.258l-.079 1.374-2.585.026zm5.453-2.213c.511 0 .961-.14 1.376-.394.397-.28.706-.647.962-1.094.22-.446.335-.98.335-1.574a2.97 2.97 0 00-.294-1.5 2.999 2.999 0 00-1.003-1.16 2.619 2.619 0 00-2.753 0 3.29 3.29 0 00-.953 1.094 3.152 3.152 0 00-.335 1.575 2.97 2.97 0 00.294 1.499c.228.466.573.866 1.003 1.16.415.254.838.394 1.368.394z"/></g><defs><clipPath id="aclip0_34_585"><path fill="#fff" transform="translate(0 .503)" d="M0 0h90v27.994H0z"/></clipPath></defs></svg><svg viewBox="0 0 16 16" id="arrow-right" xmlns="http://www.w3.org/2000/svg"><path d="M12.172 7L6.808 1.636 8.222.222 16 8l-7.778 7.778-1.414-1.414L12.172 9H0V7h12.172z"/></svg><svg viewBox="0 0 20 21" id="buy" xmlns="http://www.w3.org/2000/svg"><path fill-rule="evenodd" clip-rule="evenodd" d="M5.422 17.82a.766.766 0 010 1.53.764.764 0 110-1.53zM16.675 17.82a.766.766 0 11-.002 1.532.766.766 0 01.002-1.532z" stroke="#222" stroke-width="1.5" stroke-linecap="round" stroke-linejoin="round"/><path d="M.75 1.25l2.08.36.963 11.473a1.802 1.802 0 001.797 1.653h10.912c.896 0 1.656-.658 1.785-1.546l.949-6.558a1.34 1.34 0 00-1.327-1.533H3.164" stroke="#222" stroke-width="1.5" stroke-linecap="round" stroke-linejoin="round"/><path d="M12.125 8.795h2.773" stroke="#fff" stroke-width="1.5" stroke-linecap="round" stroke-linejoin="round"/></svg><svg viewBox="0 0 7 13" id="facebook" xmlns="http://www.w3.org/2000/svg"><path d="M4.22 4.413V2.808c0-.443.36-.802.803-.802h.803V0H4.22a2.407 2.407 0 00-2.407 2.407v2.006H.209v2.006h1.605v6.418H4.22V6.42h1.605l.802-2.006H4.22z"/></svg><svg viewBox="0 0 80 25" id="fedex" xmlns="http://www.w3.org/2000/svg"><g clip-path="url(#eclip0_34_614)"><path d="M59.49 23.78l6.673-7.388-6.672-7.388h7.04l3.304 3.588 3.181-3.588h6.794l-6.64 7.358 6.731 7.418h-7.068l-3.274-3.618-3.244 3.618h-6.824z"/><path d="M59.49 5.691h-7.555v3.312h7.556v4.992h-7.556v4.583h7.556v5.202H46.38V.503h13.11v5.188zM40.85.503v9.526h-.06c-1.225-1.387-2.754-1.869-4.53-1.869-3.635 0-6.374 2.436-7.335 5.657-1.097-3.549-3.924-5.723-8.117-5.723-3.405 0-6.093 1.506-7.496 3.96v-3.05H6.274V5.692h7.68V.503H0V23.78h6.274v-9.785h6.253a9.15 9.15 0 00-.286 2.3c0 4.856 3.764 8.263 8.567 8.263 4.04 0 6.701-1.868 8.11-5.276H23.54c-.727 1.024-1.279 1.328-2.733 1.328-1.686 0-3.14-1.45-3.14-3.168h10.948c.475 3.857 3.523 7.183 7.707 7.183a5.38 5.38 0 004.467-2.352h.06v1.507h5.531V.503h-5.53zM17.844 14.065c.35-1.478 1.513-2.445 2.965-2.445 1.6 0 2.704.937 2.994 2.445h-5.959zm19.652 6.17c-2.04 0-3.306-1.871-3.306-3.826 0-2.089 1.102-4.098 3.306-4.098 2.284 0 3.195 2.01 3.195 4.098 0 1.982-.965 3.827-3.195 3.827z"/></g><defs><clipPath id="eclip0_34_614"><path fill="#fff" transform="translate(0 .503)" d="M0 0h80v23.995H0z"/></clipPath></defs></svg><svg viewBox="0 0 85 29" id="google" xmlns="http://www.w3.org/2000/svg"><g clip-path="url(#fclip0_34_598)"><path d="M36.146 14.86c0 3.885-3.085 6.748-6.871 6.748-3.786 0-6.871-2.863-6.871-6.749 0-3.913 3.085-6.749 6.87-6.749 3.787 0 6.872 2.836 6.872 6.75zm-3.008 0c0-2.429-1.788-4.09-3.863-4.09s-3.863 1.661-3.863 4.09c0 2.403 1.788 4.089 3.863 4.089s3.863-1.689 3.863-4.09zM50.97 14.86c0 3.885-3.085 6.748-6.872 6.748-3.786 0-6.87-2.863-6.87-6.749 0-3.91 3.084-6.749 6.87-6.749 3.787 0 6.872 2.836 6.872 6.75zm-3.008 0c0-2.429-1.788-4.09-3.864-4.09-2.075 0-3.863 1.661-3.863 4.09 0 2.403 1.788 4.089 3.863 4.089 2.076 0 3.864-1.689 3.864-4.09zM65.176 8.518v12.117c0 4.984-2.984 7.02-6.51 7.02-3.32 0-5.318-2.188-6.072-3.978l2.619-1.074c.466 1.099 1.609 2.395 3.45 2.395 2.257 0 3.656-1.372 3.656-3.956v-.97h-.105c-.673.818-1.97 1.533-3.607 1.533-3.425 0-6.563-2.94-6.563-6.721 0-3.81 3.138-6.774 6.563-6.774 1.634 0 2.93.715 3.607 1.51h.105V8.52h2.857v-.003zm-2.644 6.366c0-2.377-1.609-4.114-3.656-4.114-2.076 0-3.814 1.737-3.814 4.114 0 2.352 1.738 4.065 3.814 4.065 2.047 0 3.656-1.713 3.656-4.065zM69.885 1.416v19.779h-2.934V1.416h2.934zM81.318 17.08l2.335 1.534c-.754 1.099-2.57 2.991-5.707 2.991-3.892 0-6.798-2.963-6.798-6.749 0-4.013 2.931-6.749 6.461-6.749 3.555 0 5.293 2.787 5.861 4.294l.312.767-9.156 3.736c.7 1.354 1.79 2.045 3.32 2.045 1.531 0 2.594-.743 3.372-1.868zm-7.186-2.428l6.12-2.504c-.336-.843-1.35-1.43-2.541-1.43-1.529 0-3.657 1.33-3.58 3.934zM11.298 13.104V10.24h9.793c.096.5.145 1.09.145 1.729 0 2.148-.596 4.804-2.517 6.697-1.868 1.917-4.255 2.94-7.418 2.94-5.861 0-10.79-4.705-10.79-10.48C.511 5.35 5.44.646 11.301.646c3.243 0 5.553 1.254 7.289 2.888l-2.05 2.02c-1.245-1.15-2.932-2.045-5.242-2.045a7.572 7.572 0 00-7.628 7.617 7.572 7.572 0 007.628 7.616c2.777 0 4.358-1.099 5.37-2.097.822-.809 1.363-1.965 1.576-3.544l-6.946.003z"/></g><defs><clipPath id="fclip0_34_598"><path fill="#fff" transform="translate(.4 .503)" d="M0 0h84v27.994H0z"/></clipPath></defs></svg><svg viewBox="0 0 85 25" id="hubspot" xmlns="http://www.w3.org/2000/svg"><path d="M9.297 4.476v6.768H3.128V4.476H.2v16.157h2.928v-6.549h6.169v6.549h2.928V4.476H9.297zM21.597 15.41a2.45 2.45 0 01-.71 1.725 2.413 2.413 0 01-3.425 0 2.451 2.451 0 01-.71-1.726V8.49h-2.778v6.92c0 1.389.547 2.72 1.522 3.702a5.176 5.176 0 003.674 1.534c1.377 0 2.699-.552 3.673-1.534a5.256 5.256 0 001.522-3.702V8.49h-2.768v6.92zM42.178 9.203c0-1.419.932-1.869 1.952-1.869.822 0 1.908.63 2.618 1.396l1.82-2.16c-.908-1.238-2.75-2.094-4.259-2.094-3.013 0-5.192 1.778-5.192 4.727 0 5.47 6.634 3.734 6.634 6.795 0 .945-.91 1.779-1.951 1.779-1.643 0-2.175-.81-2.93-1.666l-2.019 2.116c1.291 1.597 2.884 2.409 4.793 2.409 2.862 0 5.165-1.8 5.165-4.614 0-6.073-6.635-4.186-6.635-6.82M83.223 18.05c-1.642 0-2.108-.715-2.108-1.811v-4.851h2.551V8.93h-2.551V5.687L78.299 6.96v9.882c0 2.527 1.73 3.801 4.103 3.801.372.007.744-.023 1.11-.09l.688-2.549c-.31.022-.666.044-.977.044M32.17 8.57c-1.375 0-2.335.403-3.264 1.32V4.574h-2.782v9.857c0 3.69 2.648 6.217 5.622 6.217 3.3 0 6.203-2.572 6.203-6.037 0-3.42-2.672-6.038-5.778-6.038v-.001zm-.017 9.256a3.14 3.14 0 01-1.753-.536 3.176 3.176 0 01-1.163-1.428 3.203 3.203 0 01.684-3.466 3.134 3.134 0 013.44-.69c.577.24 1.07.649 1.417 1.172a3.199 3.199 0 01-.393 4.016 3.144 3.144 0 01-2.232.932zM62.38 14.462c0-3.47-2.898-6.037-6.204-6.037-2.974 0-5.621 2.528-5.621 6.218v9.862h2.782V19.18c.927.917 1.888 1.32 3.263 1.32 3.106 0 5.778-2.616 5.778-6.038h.001zm-2.635-.035c0 .63-.185 1.245-.532 1.768-.347.523-.84.93-1.417 1.171a3.133 3.133 0 01-3.44-.69 3.204 3.204 0 01-.684-3.467 3.175 3.175 0 011.163-1.427 3.14 3.14 0 013.985.396c.592.596.925 1.406.925 2.25z"/><path d="M71.367 8.29V5.472c.37-.174.682-.45.902-.796.22-.346.337-.748.34-1.16v-.064c0-.576-.228-1.127-.631-1.534a2.144 2.144 0 00-1.522-.635h-.065c-.57 0-1.118.228-1.522.635-.403.407-.63.958-.63 1.534v.065c.002.41.12.813.34 1.159.22.346.532.622.901.796v2.816a6.072 6.072 0 00-2.898 1.286l-7.665-6.017a2.44 2.44 0 00.086-.608c.001-.484-.14-.957-.406-1.359A2.429 2.429 0 0057.51.69a2.407 2.407 0 00-2.644.526 2.46 2.46 0 00-.53 2.663c.184.446.494.828.893 1.097.398.27.867.413 1.346.414.42-.002.831-.115 1.194-.327l7.549 5.918a6.196 6.196 0 00.093 6.94l-2.296 2.314a1.96 1.96 0 00-.574-.094 1.98 1.98 0 00-1.105.339c-.328.22-.583.534-.733.9a2.021 2.021 0 00.432 2.187 1.987 1.987 0 002.17.436c.363-.152.674-.41.893-.739.22-.33.336-.718.336-1.115a1.995 1.995 0 00-.093-.578l2.272-2.289a6.077 6.077 0 005.284 1.08 6.108 6.108 0 002.45-1.297 6.17 6.17 0 001.632-2.251 6.214 6.214 0 00-.282-5.426 6.155 6.155 0 00-1.859-2.067 6.097 6.097 0 00-2.571-1.03zm-.941 9.262a3.125 3.125 0 01-1.745-.535 3.161 3.161 0 01-1.156-1.421 3.19 3.19 0 01.682-3.45 3.12 3.12 0 013.424-.686c.574.24 1.064.645 1.41 1.165a3.185 3.185 0 01-.39 3.998 3.13 3.13 0 01-2.222.927"/></svg><svg viewBox="0 0 13 13" id="instagram" xmlns="http://www.w3.org/2000/svg"><g clip-path="url(#hclip0_34_568)"><path d="M12.988 3.774c-.03-.682-.14-1.15-.299-1.557a3.133 3.133 0 00-.742-1.139 3.16 3.16 0 00-1.136-.74C10.402.182 9.936.07 9.254.04 8.567.008 8.348 0 6.606 0 4.863 0 4.645.008 3.96.038c-.682.03-1.151.14-1.557.298a3.132 3.132 0 00-1.139.742 3.16 3.16 0 00-.74 1.136c-.158.41-.268.876-.298 1.558-.033.687-.04.905-.04 2.648s.007 1.96.037 2.646c.03.682.14 1.15.299 1.557.163.431.416.817.742 1.138.321.326.71.58 1.136.74.409.158.875.269 1.557.299.685.03.903.037 2.646.037 1.743 0 1.961-.007 2.646-.037.682-.03 1.15-.14 1.557-.299a3.283 3.283 0 001.878-1.878c.158-.409.269-.875.299-1.557.03-.685.037-.903.037-2.646 0-1.743-.002-1.961-.032-2.646zm-1.156 5.241c-.028.627-.133.966-.22 1.192a2.13 2.13 0 01-1.22 1.218c-.225.088-.566.193-1.19.221-.678.03-.881.038-2.594.038-1.713 0-1.918-.008-2.593-.038-.627-.028-.965-.133-1.191-.22a1.976 1.976 0 01-.737-.48 1.995 1.995 0 01-.48-.737c-.087-.226-.192-.567-.22-1.191-.03-.677-.038-.88-.038-2.593s.008-1.919.038-2.593c.028-.627.133-.966.22-1.191.103-.279.266-.532.482-.738.208-.213.459-.376.737-.479.226-.087.567-.193 1.192-.22.677-.03.88-.038 2.593-.038 1.715 0 1.918.008 2.593.038.627.027.965.133 1.19.22.28.103.532.266.738.48.213.208.376.458.48.737.087.225.192.566.22 1.19.03.678.037.881.037 2.594 0 1.713-.007 1.913-.037 2.59z"/><path d="M6.605 3.122a3.299 3.299 0 10.002 6.597 3.299 3.299 0 00-.002-6.597zm0 5.437a2.14 2.14 0 110-4.28 2.14 2.14 0 010 4.28zM10.803 2.992a.77.77 0 11-1.54 0 .77.77 0 011.54 0z"/></g><defs><clipPath id="hclip0_34_568"><path fill="#fff" transform="translate(.163)" d="M0 0h12.837v12.837H0z"/></clipPath></defs></svg><svg viewBox="0 0 123 27" id="microsoft" xmlns="http://www.w3.org/2000/svg"><g clip-path="url(#iclip0_34_605)"><path d="M43.663 15.476l-.727 2.055h-.06a14.566 14.566 0 00-.707-2.015L38.27 5.743h-3.817V21.32h2.525v-9.612c0-.605 0-1.29-.02-2.136-.02-.423-.061-.746-.081-.988h.06c.121.605.263 1.048.364 1.33l4.686 11.365h1.777L48.41 9.814c.101-.262.202-.786.303-1.23h.06c-.06 1.149-.1 2.177-.12 2.801v9.874h2.686V5.703h-3.676l-4 9.773zm10.22-5.38h2.627v11.163h-2.626V10.096zm1.334-4.716c-.444 0-.808.162-1.11.444a1.428 1.428 0 00-.465 1.088c0 .423.161.786.464 1.068.303.282.667.423 1.111.423.444 0 .828-.161 1.111-.423.303-.282.465-.645.465-1.068 0-.423-.162-.786-.465-1.088-.263-.282-.646-.444-1.11-.444zm10.604 4.615c-.484-.1-.99-.161-1.474-.161-1.192 0-2.283.262-3.191.786-.91.524-1.637 1.249-2.101 2.156-.485.927-.727 1.995-.727 3.224 0 1.068.242 2.015.707 2.881.464.847 1.11 1.532 1.98 1.995.827.464 1.797.706 2.888.706 1.252 0 2.322-.262 3.17-.746l.02-.02v-2.418l-.1.08a4.52 4.52 0 01-1.273.665c-.464.162-.888.242-1.252.242-1.05 0-1.878-.302-2.464-.967-.606-.645-.91-1.531-.91-2.64 0-1.148.304-2.055.93-2.72.626-.665 1.454-1.008 2.464-1.008.849 0 1.717.282 2.505.847l.1.08v-2.559l-.02-.02c-.343-.141-.726-.302-1.252-.403zm8.666-.08c-.647 0-1.253.2-1.778.624-.444.363-.747.887-1.01 1.511h-.02v-1.954h-2.626v11.163h2.626v-5.702c0-.968.202-1.774.646-2.358.445-.605 1.01-.907 1.697-.907.242 0 .485.06.788.1.282.082.484.162.626.263l.1.08v-2.62l-.06-.02c-.181-.12-.545-.18-.99-.18zm7.15-.061c-1.838 0-3.313.544-4.343 1.612-1.05 1.068-1.555 2.539-1.555 4.393 0 1.733.525 3.143 1.535 4.171 1.01 1.008 2.383 1.532 4.1 1.532 1.798 0 3.232-.545 4.262-1.633 1.05-1.088 1.556-2.539 1.556-4.332 0-1.773-.485-3.184-1.475-4.212-.95-1.027-2.343-1.531-4.08-1.531zm2.1 8.584c-.484.625-1.252.927-2.201.927-.95 0-1.717-.302-2.262-.967-.546-.625-.808-1.532-.808-2.68 0-1.19.283-2.096.808-2.74.545-.646 1.292-.968 2.242-.968.929 0 1.656.302 2.181.927.525.625.808 1.532.808 2.72-.04 1.21-.262 2.157-.767 2.781zm9.312-3.708c-.828-.342-1.353-.604-1.596-.826-.202-.201-.303-.483-.303-.846 0-.302.122-.605.425-.806.303-.202.646-.302 1.151-.302.444 0 .909.08 1.353.201.445.121.849.302 1.172.544l.1.08v-2.458l-.06-.02a7.3 7.3 0 00-1.191-.342c-.485-.081-.93-.121-1.293-.121-1.252 0-2.283.302-3.09.967-.809.625-1.192 1.471-1.192 2.458 0 .524.08.988.262 1.37.182.383.445.746.808 1.049.364.282.889.604 1.616.906.606.262 1.07.464 1.353.625.283.161.465.343.606.484.101.16.162.362.162.624 0 .746-.566 1.109-1.717 1.109-.444 0-.909-.081-1.454-.262a5.62 5.62 0 01-1.475-.746l-.1-.08v2.559l.06.02c.384.181.848.302 1.414.443.565.1 1.07.181 1.515.181 1.353 0 2.464-.302 3.252-.967.808-.645 1.232-1.47 1.232-2.539 0-.745-.202-1.41-.647-1.914a8.193 8.193 0 00-2.363-1.39zm9.938-4.876c-1.838 0-3.313.544-4.343 1.612-1.03 1.068-1.555 2.539-1.555 4.393 0 1.733.525 3.143 1.535 4.171 1.01 1.008 2.383 1.532 4.1 1.532 1.798 0 3.232-.545 4.262-1.633 1.051-1.088 1.556-2.539 1.556-4.332 0-1.773-.485-3.184-1.475-4.212-.949-1.027-2.343-1.531-4.08-1.531zm2.08 8.584c-.484.625-1.252.927-2.201.927-.97 0-1.717-.302-2.263-.967-.545-.625-.807-1.532-.807-2.68 0-1.19.282-2.096.807-2.74.546-.646 1.293-.968 2.243-.968.908 0 1.656.302 2.181.927.525.625.808 1.532.808 2.72 0 1.21-.263 2.157-.768 2.781zm17.513-6.186v-2.156h-2.646V6.79l-.081.02-2.505.746-.06.02v2.519h-3.959v-1.41c0-.646.161-1.15.444-1.472.283-.322.707-.484 1.232-.484.364 0 .747.081 1.172.262l.101.06V4.777l-.061-.02c-.364-.121-.848-.202-1.474-.202a4.74 4.74 0 00-2.101.484 3.498 3.498 0 00-1.434 1.43c-.344.605-.525 1.29-.525 2.076v1.552h-1.838v2.136h1.838v9.027h2.646v-9.007h3.959v5.743c0 2.357 1.111 3.546 3.332 3.546.364 0 .748-.06 1.111-.12.384-.081.667-.182.828-.262l.021-.02v-2.157l-.101.08c-.162.102-.303.182-.546.243-.202.06-.384.08-.525.08-.525 0-.889-.12-1.151-.423-.243-.282-.364-.745-.364-1.43v-5.28h2.687zM.6.503h12.382v12.353H.6V.503zM14.274.503h12.382v12.353H14.274V.503zM.6 14.145h12.382v12.353H.6V14.145zM14.274 14.145h12.382v12.353H14.274V14.145z"/></g><defs><clipPath id="iclip0_34_605"><path fill="#fff" transform="translate(.6 .503)" d="M0 0h122v25.995H0z"/></clipPath></defs></svg><svg viewBox="0 0 17 22" id="profile" xmlns="http://www.w3.org/2000/svg"><circle cx="8.579" cy="6.278" r="4.778" stroke="#222" stroke-width="1.5" stroke-linecap="round" stroke-linejoin="round"/><path fill-rule="evenodd" clip-rule="evenodd" d="M1 17.701a2.214 2.214 0 01.22-.97c.457-.915 1.748-1.4 2.819-1.62a16.793 16.793 0 012.343-.33 25.059 25.059 0 014.385 0c.787.056 1.57.166 2.343.33 1.07.22 2.361.659 2.82 1.62a2.27 2.27 0 010 1.95c-.459.96-1.75 1.4-2.82 1.61-.772.172-1.555.286-2.343.34-1.188.1-2.38.118-3.57.054-.275 0-.54 0-.815-.055a15.43 15.43 0 01-2.334-.338c-1.08-.21-2.361-.65-2.828-1.611A2.28 2.28 0 011 17.7z" stroke="#222" stroke-width="1.5" stroke-linecap="round" stroke-linejoin="round"/></svg><svg viewBox="0 0 16 16" id="search" xmlns="http://www.w3.org/2000/svg"><path fill-rule="evenodd" clip-rule="evenodd" d="M7.25 2.166a5.083 5.083 0 100 10.167 5.083 5.083 0 000-10.167zM.835 7.25a6.417 6.417 0 1111.399 4.044l2.739 2.734a.667.667 0 11-.942.944l-2.74-2.736A6.417 6.417 0 01.834 7.25z"/></svg><svg viewBox="0 0 14 13" id="twitter" xmlns="http://www.w3.org/2000/svg"><g clip-path="url(#lclip0_34_564)"><path d="M13.419 2.438c-.478.21-.987.348-1.517.416a2.616 2.616 0 001.158-1.455 5.259 5.259 0 01-1.669.637 2.63 2.63 0 00-4.552 1.8c0 .209.017.41.06.6a7.45 7.45 0 01-5.424-2.753A2.636 2.636 0 002.284 5.2a2.599 2.599 0 01-1.19-.323v.028c0 1.28.913 2.342 2.11 2.586a2.627 2.627 0 01-.69.087c-.17 0-.34-.01-.499-.045a2.657 2.657 0 002.46 1.833A5.288 5.288 0 011.21 10.49c-.216 0-.423-.01-.63-.036a7.409 7.409 0 004.038 1.18c4.843 0 7.49-4.01 7.49-7.488 0-.117-.004-.229-.01-.34.523-.371.962-.834 1.32-1.367z"/></g><defs><clipPath id="lclip0_34_564"><path fill="#fff" transform="translate(.581)" d="M0 0h12.837v12.837H0z"/></clipPath></defs></svg><svg viewBox="0 0 112 27" id="walmart" xmlns="http://www.w3.org/2000/svg"><g clip-path="url(#mclip0_34_611)"><path d="M40.302 9.749v1.473h.045c.53-.789 1.41-1.717 3.361-1.717 1.518 0 2.683.772 3.181 1.939h.045c.427-.59.915-1.037 1.463-1.353.648-.375 1.369-.59 2.277-.59 2.055 0 3.874 1.337 3.874 4.707v6.391h-3.133v-5.945c0-1.708-.617-2.695-1.899-2.695-.939 0-1.622.593-1.881 1.323-.09.251-.132.593-.132.88v6.44H44.37v-6.189c0-1.45-.592-2.457-1.857-2.457-1.012 0-1.646.75-1.906 1.391-.111.274-.146.59-.146.887v6.365h-3.136V9.749h2.977zm30.416 0v2.047h.086c.575-1.565 1.94-2.291 3.14-2.291.301 0 .468.022.71.068v2.842c-.287-.04-.554-.078-.929-.078-1.358 0-2.304.743-2.543 1.906-.052.242-.07.502-.07.802v5.557h-3.215V9.75h2.82zm8.302-3.595V9.57h2.717v2.764h-2.716v4.077c0 1.32.356 1.959 1.417 1.959.499 0 .866-.059 1.185-.134l.042 2.291c-.427.15-1.335.313-2.256.313-1.085 0-1.99-.355-2.54-.906-.631-.629-.922-1.659-.922-3.126V6.154h3.073zM35.142 20.599h-3.119V6.154h3.119v14.445zm-8.317-3.875c0 .199-.017.407-.076.586-.243.753-1.071 1.389-2.104 1.389-.863 0-1.549-.46-1.549-1.434 0-1.49 1.747-1.904 3.732-1.894v1.353h-.003zm3.115-2.598c0-2.46-1.116-4.621-4.89-4.621-1.937 0-3.475.511-4.314.967l.614 1.976c.765-.457 1.989-.832 3.146-.832 1.917-.003 2.228 1.02 2.228 1.676v.156c-4.175-.006-6.813 1.353-6.813 4.123 0 1.692 1.342 3.276 3.677 3.276 1.438 0 2.637-.538 3.358-1.402h.07s.478 1.874 3.105 1.157c-.14-.782-.184-1.613-.184-2.614v-3.862h.003zM4.244 6.154c.323 1.529 1.238 5.968 1.238 5.968.384 1.825.738 3.738 1.005 5.25h.048c.26-1.606.669-3.129 1.106-5.012l1.542-6.206h3.413l1.442 6.365c.377 1.77.679 3.136.918 4.782h.045c.26-1.663.6-3.084.97-4.902l1.387-6.245h3.274l-4.058 14.445c-2.585.531-3.576-.447-3.93-1.998-.353-1.555-1.046-4.51-1.046-4.51-.357-1.62-.634-2.761-.828-4.423h-.049c-.277 1.645-.568 2.8-.998 4.419l-1.701 6.515c-2.64.496-3.556-.238-4.062-2.23C3.524 16.669.8 6.158.8 6.158h3.444v-.003zM62.7 16.724c0 .199-.018.407-.077.586-.242.753-1.07 1.389-2.103 1.389-.863 0-1.55-.46-1.55-1.434 0-1.49 1.747-1.904 3.733-1.894v1.353h-.003zm3.115-2.598c0-2.46-1.116-4.621-4.89-4.621-1.937 0-3.475.511-4.314.967l.613 1.976c.766-.457 1.99-.832 3.147-.832 1.913-.003 2.228 1.02 2.228 1.676v.156c-4.172-.006-6.81 1.353-6.81 4.123 0 1.692 1.345 3.276 3.677 3.276 1.435 0 2.637-.538 3.355-1.402h.073s.478 1.874 3.105 1.157c-.139-.782-.184-1.613-.184-2.614v-3.862zM94.38 15.624c.308.528.287 1.116-.041 1.385l-5.672 3.918c-.59.336-1.475-.072-1.976-.926-.504-.858-.415-1.814.176-2.151l6.28-2.88c.394-.15.926.127 1.233.654zm7.465 0c.311-.527.839-.8 1.233-.657l6.283 2.88c.591.336.677 1.293.176 2.15-.504.855-1.392 1.26-1.979.926l-5.672-3.917c-.325-.266-.349-.858-.041-1.382zm-3.734 2.124c.618 0 1.126.313 1.195.725l.611 6.8c0 .673-.798 1.225-1.803 1.225-1.002 0-1.803-.552-1.803-1.226l.608-6.8c.07-.411.577-.724 1.192-.724zm3.775-7.753l5.672-3.92c.587-.338 1.475.067 1.979.925.501.858.415 1.814-.176 2.15l-6.283 2.884c-.394.143-.926-.13-1.233-.657-.308-.528-.284-1.117.041-1.382zm-8.74 2.039L86.868 9.15c-.587-.337-.677-1.293-.176-2.151.5-.858 1.388-1.263 1.976-.926l5.672 3.921c.328.262.349.854.041 1.382-.307.527-.84.8-1.233.657zm3.773-3.506l-.608-6.8c0-.674.798-1.225 1.803-1.225s1.803.551 1.803 1.225l-.611 6.8c-.07.409-.577.725-1.195.725-.615 0-1.123-.316-1.192-.725zM111.071 20.9v-.17h.155c.052 0 .087.034.087.085a.083.083 0 01-.087.085h-.155zm-.128.31c0 .017.014.034.035.034h.065c.018 0 .035-.017.035-.034v-.194h.107l.086.204c.007.014.018.024.031.024h.08a.034.034 0 00.031-.048c-.031-.06-.062-.126-.093-.19a.188.188 0 00.131-.19c0-.13-.107-.205-.214-.205h-.259c-.018 0-.035.017-.035.034v.565zm-.28-.282c0-.276.228-.5.508-.5s.508.22.508.5c0 .275-.225.5-.508.5a.503.503 0 01-.508-.5zm-.12 0c0 .34.279.619.628.619.346 0 .629-.28.629-.62 0-.34-.283-.619-.629-.619a.623.623 0 00-.628.62z"/></g><defs><clipPath id="mclip0_34_611"><path fill="#fff" transform="translate(.8 .503)" d="M0 0h111v25.995H0z"/></clipPath></defs></svg></svg>