<?xml version="1.0" encoding="utf-8"?><svg viewBox="0 0 162 48" xmlns="http://www.w3.org/2000/svg" xmlns:xlink="http://www.w3.org/1999/xlink"><style>:root>svg{display:none}:root>svg:target{display:block}</style><svg viewBox="0 0 16 16" id="YouTube" xmlns="http://www.w3.org/2000/svg"><path fill-rule="evenodd" clip-rule="evenodd" d="M14.26 2.743a2.004 2.004 0 011.41 1.41c.343 1.252.33 3.862.33 3.862s0 2.596-.33 3.848a2.005 2.005 0 01-1.41 1.41c-1.252.33-6.26.33-6.26.33s-4.995 0-6.26-.343a2.005 2.005 0 01-1.41-1.41C0 10.611 0 8.002 0 8.002s0-2.597.33-3.849A2.046 2.046 0 011.74 2.73C2.992 2.4 8 2.4 8 2.4s5.008 0 6.26.343zm-3.69 5.258l-4.165 2.4V5.602L10.57 8z"/></svg><svg viewBox="0 0 90 29" id="airbnb" xmlns="http://www.w3.org/2000/svg"><g clip-path="url(#abclip0_34_585)"><path d="M25.8 20.343c-.142-.34-.274-.7-.415-1.006l-.653-1.46-.026-.027a288.838 288.838 0 00-6.212-12.667l-.088-.175c-.221-.411-.442-.866-.671-1.286-.282-.499-.556-1.033-1.006-1.54A4.67 4.67 0 0015.113.93a4.71 4.71 0 00-5.62 1.252c-.414.507-.723 1.041-1.005 1.54-.22.455-.441.9-.67 1.312l-.089.175c-2.162 4.2-4.27 8.468-6.212 12.667l-.053.053c-.194.455-.423.927-.644 1.434-.141.307-.282.64-.423 1.007a5.902 5.902 0 00.853 5.833 5.994 5.994 0 002.45 1.844c.965.392 2.016.53 3.05.397a7.438 7.438 0 002.805-.962c1.148-.639 2.25-1.566 3.486-2.904 1.235 1.338 2.364 2.265 3.485 2.913a7.441 7.441 0 003.547 1.006 6.022 6.022 0 003.941-1.445 5.926 5.926 0 002.015-3.655 5.155 5.155 0 00-.23-3.062v.008zm-12.671 1.453c-1.518-1.925-2.506-3.692-2.841-5.206a4.512 4.512 0 01-.088-1.714c.061-.446.229-.84.458-1.173.53-.76 1.456-1.233 2.471-1.233.482-.015.96.09 1.391.303.431.214.802.53 1.08.922.229.35.397.735.45 1.18.088.508.052 1.094-.089 1.715-.335 1.488-1.323 3.272-2.832 5.206zM24.37 23.09c-.1.721-.39 1.403-.838 1.979a4.197 4.197 0 01-1.72 1.302c-.671.28-1.412.359-2.136.28a5.557 5.557 0 01-2.135-.735 13.77 13.77 0 01-3.203-2.712c1.853-2.274 2.973-4.348 3.397-6.194.203-.875.23-1.662.141-2.388a4.814 4.814 0 00-.759-1.925 4.717 4.717 0 00-1.73-1.487 4.763 4.763 0 00-2.232-.507c-1.632 0-3.088.752-3.97 1.986a4.509 4.509 0 00-.75 1.933 5.711 5.711 0 00.141 2.388c.424 1.846 1.57 3.946 3.397 6.211a12.613 12.613 0 01-3.203 2.73c-.732.42-1.43.639-2.135.726a4.226 4.226 0 01-3.086-.823 4.157 4.157 0 01-1.608-2.738c-.088-.7-.027-1.4.256-2.186.088-.28.22-.56.361-.893.195-.455.424-.927.645-1.4l.035-.06A285.195 285.195 0 019.388 5.97l.088-.175c.22-.42.441-.866.67-1.286.23-.446.477-.875.795-1.225a2.95 2.95 0 014.491 0c.309.35.565.779.794 1.225.22.42.441.875.67 1.286l.089.175a345.543 345.543 0 016.176 12.606l.027.026c.23.455.423.963.644 1.4.141.341.282.613.37.901.168.788.256 1.487.168 2.187zm12.283-1.487a4.462 4.462 0 01-1.927-.406 4.426 4.426 0 01-1.559-1.195 5.7 5.7 0 01-1.412-3.919 6.058 6.058 0 011.465-4.007 4.673 4.673 0 011.618-1.21 4.711 4.711 0 011.982-.417 3.822 3.822 0 011.852.421 3.783 3.783 0 011.413 1.259l.088-1.374h2.577v10.568h-2.586l-.088-1.54a3.975 3.975 0 01-1.473 1.351c-.6.319-1.27.48-1.95.47zm.67-2.52c.512 0 .962-.14 1.385-.393a3.29 3.29 0 00.953-1.094c.22-.446.336-.98.336-1.574a2.97 2.97 0 00-.295-1.5 3 3 0 00-1.002-1.16 2.619 2.619 0 00-2.753 0 3.29 3.29 0 00-.953 1.094 3.483 3.483 0 00-.336 1.575 2.97 2.97 0 00.295 1.499 3 3 0 001.002 1.16c.415.254.865.394 1.368.394zm9.838-11.18c0 .307-.053.587-.194.814-.14.219-.335.42-.59.56-.257.14-.53.192-.813.192a1.69 1.69 0 01-.82-.192 1.618 1.618 0 01-.591-.56 1.582 1.582 0 01-.195-.814c0-.315.062-.594.195-.813.14-.263.344-.42.59-.56.257-.14.53-.201.821-.201a1.635 1.635 0 011.412.752c.129.255.192.537.185.822zm-3 13.385v-10.55h2.806v10.568h-2.814l.008-.018zm10.306-7.786v.035c-.132-.061-.309-.087-.44-.114-.177-.034-.319-.034-.486-.034-.785 0-1.377.227-1.765.7-.424.48-.618 1.154-.618 2.02v5.188h-2.814V10.729h2.585l.088 1.601c.283-.56.618-.98 1.094-1.295a2.753 2.753 0 011.597-.437c.203 0 .398.017.565.052.088.027.141.027.194.053v2.8zm1.13 7.786V6.398h2.806v5.687a4.442 4.442 0 011.411-1.207 4.464 4.464 0 012.883-.35 4.436 4.436 0 012.482 1.496 5.7 5.7 0 011.412 3.928 6.058 6.058 0 01-1.465 4.006 4.674 4.674 0 01-1.618 1.21 4.712 4.712 0 01-1.982.418 3.822 3.822 0 01-1.851-.422 3.782 3.782 0 01-1.414-1.258l-.088 1.373-2.576.027v-.018zm5.426-2.204c.503 0 .953-.14 1.377-.394a3.29 3.29 0 00.953-1.094c.229-.446.335-.98.335-1.574 0-.586-.106-1.12-.336-1.566a3.288 3.288 0 00-.952-1.094 2.619 2.619 0 00-2.753 0c-.397.28-.706.648-.962 1.094a3.483 3.483 0 00-.335 1.575 2.97 2.97 0 00.294 1.499c.227.466.573.866 1.003 1.16.414.254.864.394 1.376.394zm6.627 2.213V10.729h2.585l.088 1.373a3.482 3.482 0 011.335-1.248 3.52 3.52 0 011.789-.405 3.64 3.64 0 012.01.564c.599.38 1.072.926 1.36 1.57.31.665.477 1.488.477 2.406v6.334h-2.815v-5.966c0-.735-.168-1.312-.503-1.741-.335-.42-.794-.647-1.376-.647-.424 0-.794.087-1.121.28a2.191 2.191 0 00-.759.813c-.196.363-.293.77-.282 1.181v6.054H67.65zm11.047 0V6.39h2.814v5.686c.382-.51.878-.925 1.449-1.212a4.149 4.149 0 011.843-.441 4.46 4.46 0 011.926.406 4.424 4.424 0 011.559 1.195 5.718 5.718 0 011.403 3.919 6.05 6.05 0 01-1.465 4.007 4.673 4.673 0 01-1.618 1.21 4.71 4.71 0 01-1.982.417 3.82 3.82 0 01-1.851-.422 3.784 3.784 0 01-1.414-1.258l-.079 1.374-2.585.026zm5.453-2.213c.511 0 .961-.14 1.376-.394.397-.28.706-.647.962-1.094.22-.446.335-.98.335-1.574a2.97 2.97 0 00-.294-1.5 2.999 2.999 0 00-1.003-1.16 2.619 2.619 0 00-2.753 0 3.29 3.29 0 00-.953 1.094 3.152 3.152 0 00-.335 1.575 2.97 2.97 0 00.294 1.499c.228.466.573.866 1.003 1.16.415.254.838.394 1.368.394z"/></g><defs><clipPath id="abclip0_34_585"><path fill="#fff" transform="translate(0 .503)" d="M0 0h90v27.994H0z"/></clipPath></defs></svg><svg fill="none" viewBox="0 0 162 48" id="app-store" xmlns="http://www.w3.org/2000/svg"><path d="M156.322 48H5.678A5.676 5.676 0 010 42.324V5.676A5.676 5.676 0 015.678 0h150.644A5.675 5.675 0 01162 5.676v36.648A5.675 5.675 0 01156.322 48z" fill="#424551"/><path d="M160.938 42.324a4.58 4.58 0 01-4.59 4.587H5.705c-2.54 0-4.615-2.047-4.615-4.587V5.676a4.625 4.625 0 014.615-4.614h150.643a4.609 4.609 0 014.616 4.614l-.026 36.648z" fill="#424551"/><path d="M36.166 23.741c-.026-3.861 3.163-5.753 3.318-5.831-1.814-2.644-4.614-3.007-5.625-3.033-2.36-.259-4.64 1.426-5.86 1.426-1.218 0-3.084-1.4-5.08-1.348-2.567.052-4.978 1.53-6.3 3.836-2.723 4.717-.7 11.637 1.918 15.421 1.296 1.866 2.826 3.94 4.822 3.862 1.944-.078 2.67-1.244 5.03-1.244 2.333 0 3.007 1.244 5.055 1.192 2.1-.026 3.422-1.866 4.666-3.758 1.504-2.125 2.1-4.25 2.126-4.354 0 0-4.018-1.53-4.07-6.169zm-3.837-11.378c1.037-1.322 1.763-3.084 1.556-4.898-1.53.078-3.422 1.062-4.511 2.332-.96 1.14-1.841 2.981-1.608 4.717 1.711.13 3.474-.855 4.563-2.15z" fill="#fff"/><path d="M156.322 0h-80.69l31.607 48h49.083A5.675 5.675 0 00162 42.324V5.676A5.675 5.675 0 00156.322 0z" fill="url(#acpaint0_linear_2677:5745)"/><path d="M64.432 37.815h-2.723l-1.503-4.691H55.02l-1.426 4.69h-2.645l5.134-15.965h3.19l5.159 15.966zm-4.667-6.661l-1.348-4.173c-.156-.415-.415-1.426-.804-3.007h-.052c-.156.674-.415 1.685-.752 3.007l-1.322 4.173h4.278zm17.864.751c0 1.97-.544 3.5-1.607 4.64-.96 1.01-2.126 1.529-3.552 1.529-1.53 0-2.62-.544-3.293-1.633v6.039h-2.541V30.065c0-1.218-.026-2.488-.104-3.784h2.256l.156 1.814h.051c.856-1.373 2.152-2.073 3.89-2.073 1.348 0 2.489.544 3.396 1.607.908 1.114 1.348 2.54 1.348 4.276zm-2.592.104c0-1.114-.26-2.047-.752-2.773-.545-.752-1.297-1.14-2.23-1.14-.622 0-1.193.207-1.711.621-.519.415-.856.96-1.012 1.66-.077.258-.103.518-.13.777v1.918c0 .829.26 1.555.779 2.125.518.57 1.192.855 1.996.855.96 0 1.711-.363 2.256-1.114.544-.726.804-1.71.804-2.929zm15.868-.104c0 1.97-.545 3.5-1.608 4.64-.96 1.01-2.126 1.529-3.552 1.529-1.53 0-2.619-.544-3.293-1.633v6.039h-2.567V30.065c0-1.218-.026-2.488-.104-3.784h2.256l.156 1.814h.052c.855-1.373 2.152-2.073 3.889-2.073 1.348 0 2.489.544 3.397 1.607.907 1.114 1.374 2.54 1.374 4.276zm-2.619.104c0-1.114-.26-2.047-.752-2.773-.544-.752-1.296-1.14-2.23-1.14-.622 0-1.192.207-1.711.621-.519.415-.856.96-1.011 1.66-.078.31-.13.57-.13.777v1.918c0 .829.26 1.555.778 2.125.519.57 1.193.855 1.996.855.96 0 1.712-.363 2.256-1.114.545-.726.804-1.71.804-2.929zm17.424 1.322c0 1.348-.467 2.462-1.426 3.317-1.037.933-2.489 1.4-4.356 1.4-1.712 0-3.086-.337-4.149-.985l.597-2.125c1.114.674 2.36.985 3.707.985.96 0 1.712-.208 2.256-.648.545-.44.804-1.011.804-1.737 0-.648-.233-1.192-.674-1.633-.441-.44-1.167-.855-2.204-1.244-2.8-1.036-4.2-2.566-4.2-4.587 0-1.322.492-2.385 1.477-3.214.986-.83 2.308-1.244 3.916-1.244 1.452 0 2.67.26 3.629.752l-.648 2.073c-.907-.492-1.918-.726-3.059-.726-.908 0-1.608.233-2.126.674-.415.389-.649.881-.649 1.452 0 .622.234 1.166.726 1.555.415.388 1.193.777 2.334 1.244 1.374.544 2.385 1.192 3.034 1.944.7.725 1.011 1.632 1.011 2.747zm8.478-5.106h-2.826v5.598c0 1.426.493 2.126 1.504 2.126.467 0 .83-.026 1.141-.13l.078 1.944c-.493.181-1.167.285-1.997.285-1.011 0-1.789-.311-2.359-.933-.571-.622-.856-1.659-.856-3.11v-5.806h-1.685v-1.918h1.685v-2.1l2.515-.75v2.876h2.826l-.026 1.918zm12.705 3.732c0 1.763-.518 3.214-1.53 4.354-1.063 1.167-2.463 1.763-4.226 1.763-1.685 0-3.034-.57-4.045-1.685-1.011-1.114-1.504-2.54-1.504-4.25 0-1.789.519-3.24 1.556-4.38 1.037-1.14 2.437-1.711 4.175-1.711 1.685 0 3.059.57 4.07 1.685 1.012 1.088 1.504 2.514 1.504 4.224zm-2.645.052c0-1.063-.233-1.97-.674-2.721-.544-.907-1.296-1.374-2.307-1.374-1.037 0-1.815.466-2.36 1.374-.466.751-.674 1.684-.674 2.773 0 1.063.233 1.97.674 2.721.545.907 1.323 1.374 2.334 1.374.985 0 1.737-.467 2.307-1.4.467-.777.7-1.684.7-2.747zm10.968-3.473a4.22 4.22 0 00-.804-.078c-.907 0-1.607.337-2.074 1.011-.415.596-.648 1.348-.648 2.28v6.04h-2.567v-7.88c0-1.217-.026-2.41-.078-3.628h2.23l.104 2.203h.078c.259-.751.7-1.374 1.27-1.814.545-.389 1.193-.622 1.841-.622.233 0 .441.026.648.052v2.436zm11.46 2.98c0 .39-.025.778-.103 1.167h-7.675c.026 1.14.389 2.022 1.115 2.618.648.544 1.478.803 2.515.803 1.141 0 2.178-.181 3.111-.544l.389 1.762c-1.089.467-2.385.7-3.863.7-1.789 0-3.189-.518-4.2-1.581-1.012-1.063-1.53-2.462-1.53-4.225 0-1.736.467-3.188 1.426-4.328.985-1.244 2.333-1.84 4.019-1.84 1.659 0 2.93.622 3.759 1.84.7.985 1.037 2.177 1.037 3.629zm-2.437-.673c.026-.752-.155-1.426-.492-1.97-.441-.726-1.115-1.063-2.049-1.063-.829 0-1.53.337-2.048 1.037-.415.544-.674 1.218-.752 1.996h5.341zM54.294 16.199c-.7 0-1.322-.026-1.84-.104V8.372a15.387 15.387 0 012.177-.156c2.93 0 4.278 1.452 4.278 3.81 0 2.696-1.607 4.173-4.615 4.173zm.415-6.998a5.73 5.73 0 00-1.011.078v5.857c.155.026.44.026.855.026 1.919 0 3.008-1.088 3.008-3.136 0-1.814-.985-2.825-2.852-2.825zm8.4 7.05c-1.659 0-2.722-1.244-2.722-2.903 0-1.736 1.09-2.98 2.826-2.98 1.634 0 2.723 1.166 2.723 2.902 0 1.737-1.141 2.98-2.826 2.98zm.052-4.976c-.907 0-1.503.855-1.503 2.047 0 1.167.596 2.022 1.477 2.022.882 0 1.478-.907 1.478-2.048.026-1.166-.57-2.021-1.452-2.021zm12.213-.804l-1.763 5.65h-1.167l-.726-2.462a21.206 21.206 0 01-.467-1.84h-.026c-.104.622-.26 1.244-.467 1.84l-.777 2.462h-1.167l-1.66-5.65h1.297l.648 2.696c.156.648.285 1.244.389 1.814h.026c.104-.467.233-1.063.467-1.814l.803-2.696h1.037l.778 2.644c.182.648.337 1.27.467 1.866h.026c.078-.57.207-1.192.389-1.866l.7-2.644h1.193zm6.508 5.65h-1.245v-3.24c0-1.01-.389-1.503-1.14-1.503-.753 0-1.271.648-1.271 1.374v3.37h-1.27v-4.044c0-.492 0-1.037-.053-1.607h1.115l.052.881h.026c.337-.596 1.037-.984 1.79-.984 1.192 0 1.97.907 1.97 2.384l.026 3.37zm3.474 0h-1.27V7.854h1.27v8.267zm4.59.13c-1.66 0-2.723-1.244-2.723-2.903 0-1.736 1.089-2.98 2.826-2.98 1.634 0 2.722 1.166 2.722 2.902 0 1.737-1.14 2.98-2.826 2.98zm.051-4.976c-.907 0-1.504.855-1.504 2.047 0 1.167.597 2.022 1.478 2.022.882 0 1.478-.907 1.478-2.048 0-1.166-.57-2.021-1.452-2.021zm7.727 4.846l-.104-.648h-.026c-.389.519-.933.778-1.66.778-1.01 0-1.736-.7-1.736-1.659 0-1.4 1.218-2.125 3.318-2.125v-.104c0-.751-.389-1.114-1.166-1.114-.57 0-1.037.13-1.478.415l-.26-.83c.519-.337 1.167-.492 1.945-.492 1.478 0 2.23.777 2.23 2.332v2.074c0 .57.026 1.01.078 1.347l-1.141.026zm-.182-2.825c-1.4 0-2.1.337-2.1 1.14 0 .597.363.882.856.882.648 0 1.244-.493 1.244-1.14v-.882zm7.338 2.825l-.052-.907h-.026c-.363.674-.959 1.037-1.815 1.037-1.374 0-2.385-1.192-2.385-2.877 0-1.762 1.037-3.006 2.489-3.006.752 0 1.296.259 1.608.777h.025V7.854h1.271v6.738c0 .544.026 1.063.052 1.53h-1.167zm-.181-3.317c0-.804-.519-1.478-1.323-1.478-.933 0-1.504.83-1.504 1.996 0 1.14.597 1.918 1.478 1.918.804 0 1.349-.7 1.349-1.503v-.933zm9.256 3.447c-1.659 0-2.723-1.244-2.723-2.903 0-1.736 1.089-2.98 2.827-2.98 1.633 0 2.722 1.166 2.722 2.902 0 1.737-1.141 2.98-2.826 2.98zm.052-4.976c-.908 0-1.478.855-1.478 2.047 0 1.167.596 2.022 1.478 2.022.881 0 1.478-.907 1.478-2.048-.026-1.166-.597-2.021-1.478-2.021zm9.541 4.846h-1.27v-3.24c0-1.01-.389-1.503-1.141-1.503s-1.244.648-1.244 1.374v3.37h-1.271v-4.044c0-.492 0-1.037-.052-1.607h1.115l.052.881h.026c.337-.596 1.037-.984 1.789-.984 1.193 0 1.971.907 1.971 2.384v3.37h.025zm8.453-4.717h-1.374v2.748c0 .7.233 1.036.726 1.036.233 0 .415-.026.57-.052l.026.96c-.233.103-.57.129-.985.129-.985 0-1.582-.544-1.582-1.97v-2.85h-.829v-.934h.829V9.435l1.245-.363v1.4h1.374v.932zm6.664 4.717h-1.245v-3.213c0-1.011-.389-1.53-1.141-1.53-.648 0-1.27.441-1.27 1.348v3.421h-1.245V7.854h1.245v3.395h.026c.389-.622.959-.933 1.711-.933 1.193 0 1.919.933 1.919 2.41v3.395zm6.819-2.514h-3.786c.026 1.063.726 1.685 1.789 1.685.571 0 1.063-.104 1.53-.26l.207.882c-.544.233-1.166.337-1.892.337-1.763 0-2.826-1.115-2.826-2.851s1.063-3.032 2.67-3.032c1.452 0 2.36 1.062 2.36 2.695 0 .155 0 .337-.052.544zm-1.141-.907c0-.881-.441-1.503-1.245-1.503-.726 0-1.296.622-1.374 1.503h2.619z" fill="#fff"/><defs><linearGradient id="acpaint0_linear_2677:5745" x1="118.823" y1="48.113" x2="118.823" y2="-644.442" gradientUnits="userSpaceOnUse"><stop stop-color="#1A1A1A" stop-opacity=".1"/><stop offset=".123" stop-color="#212121" stop-opacity=".151"/><stop offset=".308" stop-color="#353535" stop-opacity=".227"/><stop offset=".532" stop-color="#575757" stop-opacity=".318"/><stop offset=".783" stop-color="#858585" stop-opacity=".421"/><stop offset="1" stop-color="#B3B3B3" stop-opacity=".51"/></linearGradient></defs></svg><svg fill="none" viewBox="0 0 10 8" id="arrow-down" xmlns="http://www.w3.org/2000/svg"><path d="M8.722 2.946L5.476 6.894a1.264 1.264 0 01-.405.33 1.06 1.06 0 01-.479.116 1.06 1.06 0 01-.478-.116 1.264 1.264 0 01-.405-.33L.462 2.946C-.328 1.986.237.34 1.352.34h6.493c1.115 0 1.667 1.646.877 2.606z" fill="#000"/></svg><svg viewBox="0 0 18 12" id="arrow-left" xmlns="http://www.w3.org/2000/svg"><path fill-rule="evenodd" clip-rule="evenodd" d="M6.207 11.207a1 1 0 01-1.414 0l-4.5-4.5a1 1 0 010-1.414l4.5-4.5a1 1 0 011.414 1.414L3.414 5H17a1 1 0 110 2H3.414l2.793 2.793a1 1 0 010 1.414z"/></svg><svg viewBox="0 0 18 12" id="arrow-right" xmlns="http://www.w3.org/2000/svg"><path fill-rule="evenodd" clip-rule="evenodd" d="M11.793.793a1 1 0 011.414 0l4.5 4.5a1 1 0 010 1.414l-4.5 4.5a1 1 0 01-1.414-1.414L14.586 7H1a1 1 0 010-2h13.586l-2.793-2.793a1 1 0 010-1.414z"/></svg><svg fill="none" viewBox="0 0 9 7" id="arrow-up" xmlns="http://www.w3.org/2000/svg"><path d="M.372 4.394L3.618.446c.116-.142.254-.254.405-.33A1.06 1.06 0 014.502 0c.164 0 .326.04.478.116.151.076.29.188.405.33l3.246 3.948c.79.96.226 2.606-.89 2.606H1.25C.133 7-.418 5.354.372 4.394z" fill="#000"/></svg><svg viewBox="0 0 20 21" id="buy" xmlns="http://www.w3.org/2000/svg"><path fill-rule="evenodd" clip-rule="evenodd" d="M5.422 17.82a.766.766 0 010 1.53.764.764 0 110-1.53zM16.675 17.82a.766.766 0 11-.002 1.532.766.766 0 01.002-1.532z" stroke="#222" stroke-width="1.5" stroke-linecap="round" stroke-linejoin="round"/><path d="M.75 1.25l2.08.36.963 11.473a1.802 1.802 0 001.797 1.653h10.912c.896 0 1.656-.658 1.785-1.546l.949-6.558a1.34 1.34 0 00-1.327-1.533H3.164" stroke="#222" stroke-width="1.5" stroke-linecap="round" stroke-linejoin="round"/><path d="M12.125 8.795h2.773" stroke="#fff" stroke-width="1.5" stroke-linecap="round" stroke-linejoin="round"/></svg><svg viewBox="0 0 22 20" id="card" xmlns="http://www.w3.org/2000/svg"><path fill-rule="evenodd" clip-rule="evenodd" d="M3.25 2.75a1 1 0 00-1 1v1.5h17.5v-1.5a1 1 0 00-1-1H3.25zm16.5 4.5H2.25v2.5h17.5v-2.5zm0 4.5H2.25v4.5a1 1 0 001 1h15.5a1 1 0 001-1v-4.5zm-19.5-8a3 3 0 013-3h15.5a3 3 0 013 3v12.5a3 3 0 01-3 3H3.25a3 3 0 01-3-3V3.75z"/></svg><svg viewBox="0 0 21 20" id="cart" xmlns="http://www.w3.org/2000/svg"><path fill-rule="evenodd" clip-rule="evenodd" d="M2.88 2.758a6.884 6.884 0 00-.447-.008H.917a.917.917 0 010-1.833h1.542c.197 0 .392 0 .559.013.185.014.401.046.625.146.314.14.582.366.774.652.137.203.206.41.252.59.04.163.074.355.108.548l.004.026L5 4.148l11.93.353c.466.014.87.026 1.203.062.352.04.7.112 1.035.29.507.27.916.692 1.171 1.207.169.34.23.69.26 1.042.026.334.026.738.026 1.206v.068c0 .44 0 .82-.025 1.136-.026.336-.083.669-.237.995A2.75 2.75 0 0119.28 11.7c-.31.184-.636.273-.967.332-.312.054-.691.091-1.129.134l-8.923.863c-.448.043-.837.081-1.16.087-.344.006-.689-.02-1.034-.148a2.75 2.75 0 01-1.289-.982c-.214-.3-.331-.624-.417-.957-.08-.314-.147-.699-.224-1.142l-1.162-6.68a6.894 6.894 0 00-.086-.449h-.01zM5.32 5.99l.617 3.548c.085.487.14.8.2 1.035.058.224.103.305.132.346.107.15.257.264.43.327.047.018.137.04.369.036a14.93 14.93 0 001.05-.082l8.856-.857c.48-.046.788-.077 1.022-.118.222-.04.305-.077.348-.102a.918.918 0 00.36-.398c.021-.044.051-.13.069-.356.018-.236.019-.545.019-1.028 0-.512-.001-.841-.021-1.093-.02-.24-.052-.33-.075-.376a.916.916 0 00-.39-.402c-.044-.023-.134-.059-.373-.085a15.34 15.34 0 00-1.093-.054l-11.52-.34zM7.792 16.042a.917.917 0 100 1.833.917.917 0 000-1.833zm-2.75.917a2.75 2.75 0 115.5 0 2.75 2.75 0 01-5.5 0zM16.5 16.042a.917.917 0 100 1.833.917.917 0 000-1.833zm-2.75.917a2.75 2.75 0 115.5 0 2.75 2.75 0 01-5.5 0z"/></svg><svg viewBox="0 0 16 16" id="close" xmlns="http://www.w3.org/2000/svg"><path fill-rule="evenodd" clip-rule="evenodd" d="M.293.293a1 1 0 011.414 0L8 6.586 14.293.293a1 1 0 111.414 1.414L9.414 8l6.293 6.293a1 1 0 01-1.414 1.414L8 9.414l-6.293 6.293a1 1 0 01-1.414-1.414L6.586 8 .293 1.707a1 1 0 010-1.414z"/></svg><svg viewBox="0 0 16 16" id="delete" xmlns="http://www.w3.org/2000/svg"><path fill-rule="evenodd" clip-rule="evenodd" d="M4.834 2.5c0-.92.746-1.667 1.667-1.667h3c.92 0 1.666.746 1.666 1.667v.333h3.334a.667.667 0 010 1.333h-.834V12.5a2.667 2.667 0 01-2.666 2.666H5A2.667 2.667 0 012.334 12.5V4.166h-.833a.667.667 0 010-1.333h3.333V2.5zm1.333.333h3.667V2.5a.333.333 0 00-.333-.334h-3a.333.333 0 00-.334.334v.333zm-2.5 1.333V12.5c0 .736.597 1.333 1.334 1.333h6c.736 0 1.333-.597 1.333-1.333V4.166H3.667zm4.334 1.167c.368 0 .666.298.666.667v6a.667.667 0 01-1.333 0V6c0-.369.298-.667.667-.667z"/></svg><svg viewBox="0 0 16 16" id="facebook" xmlns="http://www.w3.org/2000/svg"><path d="M11.708.67L9.856.665c-2.08 0-3.424 1.417-3.424 3.61V5.94H4.57a.295.295 0 00-.29.299V8.65c0 .165.13.3.29.3h1.862v6.084c0 .165.13.299.291.299h2.429c.16 0 .291-.134.291-.3V8.95h2.177c.16 0 .291-.134.291-.299V6.24c0-.08-.03-.155-.084-.212a.287.287 0 00-.206-.087H9.443V4.529c0-.678.157-1.022 1.017-1.022h1.248c.16 0 .29-.135.29-.3V.968a.295.295 0 00-.29-.299z"/></svg><svg viewBox="0 0 20 18" id="favorite" xmlns="http://www.w3.org/2000/svg"><path fill-rule="evenodd" clip-rule="evenodd" d="M10 15.59c-3.833-2.184-5.971-4.353-7.005-6.235-1.058-1.927-.965-3.55-.378-4.702 1.206-2.367 4.638-3.124 6.728-.48L10 5l.654-.827c2.09-2.644 5.522-1.887 6.729.48.587 1.152.68 2.775-.379 4.701-1.034 1.883-3.171 4.053-7.004 6.235zm0-13.168C7.057-.373 2.72.782 1.131 3.897c-.871 1.709-.883 3.918.402 6.26 1.275 2.32 3.815 4.77 8.062 7.117l.403.223.403-.223c4.247-2.347 6.788-4.797 8.062-7.117 1.286-2.342 1.274-4.551.403-6.26C17.279.782 12.94-.373 9.999 2.422z"/></svg><svg viewBox="0 0 80 25" id="fedex" xmlns="http://www.w3.org/2000/svg"><g clip-path="url(#aoclip0_34_614)"><path d="M59.49 23.78l6.673-7.388-6.672-7.388h7.04l3.304 3.588 3.181-3.588h6.794l-6.64 7.358 6.731 7.418h-7.068l-3.274-3.618-3.244 3.618h-6.824z"/><path d="M59.49 5.691h-7.555v3.312h7.556v4.992h-7.556v4.583h7.556v5.202H46.38V.503h13.11v5.188zM40.85.503v9.526h-.06c-1.225-1.387-2.754-1.869-4.53-1.869-3.635 0-6.374 2.436-7.335 5.657-1.097-3.549-3.924-5.723-8.117-5.723-3.405 0-6.093 1.506-7.496 3.96v-3.05H6.274V5.692h7.68V.503H0V23.78h6.274v-9.785h6.253a9.15 9.15 0 00-.286 2.3c0 4.856 3.764 8.263 8.567 8.263 4.04 0 6.701-1.868 8.11-5.276H23.54c-.727 1.024-1.279 1.328-2.733 1.328-1.686 0-3.14-1.45-3.14-3.168h10.948c.475 3.857 3.523 7.183 7.707 7.183a5.38 5.38 0 004.467-2.352h.06v1.507h5.531V.503h-5.53zM17.844 14.065c.35-1.478 1.513-2.445 2.965-2.445 1.6 0 2.704.937 2.994 2.445h-5.959zm19.652 6.17c-2.04 0-3.306-1.871-3.306-3.826 0-2.089 1.102-4.098 3.306-4.098 2.284 0 3.195 2.01 3.195 4.098 0 1.982-.965 3.827-3.195 3.827z"/></g><defs><clipPath id="aoclip0_34_614"><path fill="#fff" transform="translate(0 .503)" d="M0 0h80v23.995H0z"/></clipPath></defs></svg><svg viewBox="0 0 16 16" id="filter" xmlns="http://www.w3.org/2000/svg"><path fill-rule="evenodd" clip-rule="evenodd" d="M11.666 6.333c.368 0 .667.298.667.667v7.5a.667.667 0 01-1.334 0V7c0-.369.299-.667.667-.667zM11.666.833c.368 0 .667.298.667.667v2a.667.667 0 01-1.334 0v-2c0-.369.299-.667.667-.667z"/><path fill-rule="evenodd" clip-rule="evenodd" d="M8 4.833a2 2 0 012-2h3.333a2 2 0 012 2v.833a2 2 0 01-2 2H9.999a2 2 0 01-2-2v-.833zm2-.667a.667.667 0 00-.667.667v.833c0 .369.298.667.666.667h3.334a.667.667 0 00.666-.667v-.833a.667.667 0 00-.666-.667H9.999zM4.333 11.833c.368 0 .666.299.666.667v2a.667.667 0 01-1.333 0v-2c0-.368.298-.667.667-.667zM4.333.833c.368 0 .666.298.666.667V9a.667.667 0 01-1.333 0V1.5c0-.369.298-.667.667-.667z"/><path fill-rule="evenodd" clip-rule="evenodd" d="M.666 10.333a2 2 0 012-2h3.333a2 2 0 012 2v.833a2 2 0 01-2 2H2.666a2 2 0 01-2-2v-.833zm2-.667a.667.667 0 00-.667.667v.833c0 .368.299.667.667.667h3.333a.667.667 0 00.667-.667v-.833a.667.667 0 00-.667-.667H2.666z"/></svg><svg viewBox="0 0 16 14" id="footer-heart" xmlns="http://www.w3.org/2000/svg"><path fill-rule="evenodd" clip-rule="evenodd" d="M8 12.271C4.932 10.525 3.222 8.79 2.395 7.284c-.846-1.542-.772-2.84-.303-3.761.966-1.894 3.71-2.5 5.383-.384L8 3.8l.523-.661c1.673-2.116 4.418-1.51 5.383.384.47.921.544 2.22-.303 3.76-.826 1.507-2.537 3.242-5.603 4.988zM8 1.737C5.645-.498 2.175.426.904 2.917.208 4.285.2 6.052 1.228 7.925c1.019 1.857 3.052 3.817 6.449 5.694l.322.179.323-.179c3.397-1.877 5.43-3.837 6.45-5.694 1.028-1.873 1.018-3.64.321-5.008C13.823.425 10.353-.498 8 1.737z"/></svg><svg viewBox="0 0 14 14" id="google" xmlns="http://www.w3.org/2000/svg"><path d="M7.14 6.003h6.584c.072.405.109.793.109 1.162 0 1.314-.276 2.487-.827 3.519a5.966 5.966 0 01-2.356 2.42c-1.02.58-2.19.872-3.51.872-.95 0-1.855-.184-2.715-.55A6.972 6.972 0 012.2 11.941 6.973 6.973 0 01.715 9.717 6.856 6.856 0 01.166 7c0-.95.183-1.855.55-2.715A6.974 6.974 0 012.2 2.061 6.974 6.974 0 014.425.577 6.856 6.856 0 017.14.027c1.816 0 3.375.609 4.677 1.826L9.919 3.678c-.745-.72-1.671-1.08-2.779-1.08-.78 0-1.503.196-2.166.59A4.35 4.35 0 003.4 4.79a4.365 4.365 0 00-.581 2.211c0 .8.193 1.537.58 2.212a4.35 4.35 0 001.576 1.602c.663.394 1.385.59 2.166.59a4.63 4.63 0 001.453-.217c.442-.146.805-.327 1.09-.545.284-.218.533-.466.744-.745a3.47 3.47 0 00.468-.79c.1-.248.168-.484.204-.708H7.14V6.003z"/></svg><svg fill="none" viewBox="0 0 162 48" id="google-play" xmlns="http://www.w3.org/2000/svg"><g clip-path="url(#asclip0_2677:5751)"><path d="M156 47.991H6c-3.36 0-6-2.64-6-5.998V6.006C0 2.646 2.64.008 6 .008h150c3.36 0 6 2.639 6 5.998v35.987c0 3.359-2.64 5.998-6 5.998z" fill="#424551"/><path d="M156 .967c2.76 0 5.04 2.28 5.04 5.039v35.987c0 2.76-2.28 5.038-5.04 5.038H6c-2.76 0-5.04-2.279-5.04-5.038V6.006C.96 3.246 3.24.967 6 .967h150zm0-.96H6c-3.36 0-6 2.76-6 5.999v35.987c0 3.359 2.64 5.998 6 5.998h150c3.36 0 6-2.64 6-5.998V6.006c0-3.24-2.64-5.998-6-5.998z" fill="#424551"/><path d="M56.88 12.244c0 .96-.24 1.8-.84 2.399-.72.72-1.56 1.08-2.64 1.08s-1.92-.36-2.64-1.08c-.72-.72-1.08-1.56-1.08-2.64 0-1.079.36-1.918 1.08-2.638.72-.72 1.56-1.08 2.64-1.08.48 0 .96.12 1.44.36s.84.48 1.08.84l-.6.6c-.48-.6-1.08-.84-1.92-.84-.72 0-1.44.24-1.92.84-.6.48-.84 1.2-.84 2.039 0 .84.24 1.56.84 2.04.6.479 1.2.839 1.92.839.84 0 1.44-.24 2.04-.84.36-.36.6-.84.6-1.44H53.4v-.96h3.48v.48zm5.52-3h-3.24v2.28h3v.84h-3v2.279h3.24v.96h-4.2V8.405h4.2v.84zm3.96 6.359h-.96V9.245h-2.04v-.84h5.04v.84h-2.04v6.358zm5.52 0V8.405h.96v7.198h-.96zm5.04 0h-.96V9.245h-2.04v-.84h4.92v.84H76.8v6.358h.12zm11.4-.96c-.72.72-1.56 1.08-2.64 1.08s-1.92-.36-2.64-1.08c-.72-.72-1.08-1.56-1.08-2.64 0-1.079.36-1.918 1.08-2.638.72-.72 1.56-1.08 2.64-1.08s1.92.36 2.64 1.08c.72.72 1.08 1.56 1.08 2.639 0 1.08-.36 1.92-1.08 2.639zm-4.56-.6c.48.48 1.2.84 1.92.84s1.44-.24 1.92-.84c.48-.48.84-1.2.84-2.04 0-.839-.24-1.559-.84-2.038-.48-.48-1.2-.84-1.92-.84s-1.44.24-1.92.84c-.48.48-.84 1.2-.84 2.039 0 .84.24 1.56.84 2.04zm6.96 1.56V8.405h1.08l3.48 5.638V8.405h.96v7.198h-.96l-3.72-5.878v5.878h-.84zM81.72 26.16c-2.88 0-5.16 2.159-5.16 5.158a5.12 5.12 0 005.16 5.158c2.88 0 5.16-2.16 5.16-5.158 0-3.12-2.28-5.159-5.16-5.159zm0 8.157c-1.56 0-2.88-1.32-2.88-3.12 0-1.799 1.32-3.118 2.88-3.118 1.56 0 2.88 1.2 2.88 3.119 0 1.8-1.32 3.119-2.88 3.119zM70.56 26.16c-2.88 0-5.16 2.159-5.16 5.158a5.12 5.12 0 005.16 5.158c2.88 0 5.16-2.16 5.16-5.158 0-3.12-2.28-5.159-5.16-5.159zm0 8.157c-1.56 0-2.88-1.32-2.88-3.12 0-1.799 1.32-3.118 2.88-3.118 1.56 0 2.88 1.2 2.88 3.119 0 1.8-1.32 3.119-2.88 3.119zm-13.32-6.598v2.16h5.16c-.12 1.199-.6 2.159-1.2 2.758-.72.72-1.92 1.56-3.96 1.56-3.24 0-5.64-2.52-5.64-5.758 0-3.24 2.52-5.758 5.64-5.758 1.68 0 3 .72 3.96 1.56l1.56-1.56c-1.32-1.2-3-2.16-5.4-2.16-4.32 0-8.04 3.6-8.04 7.918s3.72 7.917 8.04 7.917c2.4 0 4.08-.72 5.52-2.28 1.44-1.439 1.92-3.478 1.92-5.038 0-.48 0-.96-.12-1.319h-7.44zm54.48 1.68c-.48-1.2-1.68-3.24-4.32-3.24-2.64 0-4.8 2.04-4.8 5.159 0 2.879 2.16 5.158 5.04 5.158 2.28 0 3.72-1.44 4.2-2.28l-1.68-1.199c-.6.84-1.32 1.44-2.52 1.44s-1.92-.48-2.52-1.56l6.84-2.879-.24-.6zm-6.96 1.679c0-1.92 1.56-3 2.64-3 .84 0 1.68.48 1.92 1.08l-4.56 1.92zm-5.64 4.918h2.28V21.001h-2.28v14.995zm-3.6-8.757c-.6-.6-1.56-1.2-2.76-1.2-2.52 0-4.92 2.28-4.92 5.159s2.28 5.038 4.92 5.038c1.2 0 2.16-.6 2.64-1.2h.12v.72c0 1.92-1.08 3-2.76 3-1.32 0-2.28-.96-2.52-1.8l-1.92.84c.6 1.319 2.04 2.998 4.56 2.998 2.64 0 4.8-1.56 4.8-5.278V26.4h-2.16v.84zm-2.64 7.078c-1.56 0-2.88-1.32-2.88-3.12 0-1.799 1.32-3.118 2.88-3.118 1.56 0 2.76 1.32 2.76 3.119 0 1.8-1.2 3.119-2.76 3.119zM122.16 21h-5.4v14.995h2.28v-5.638h3.12c2.52 0 4.92-1.8 4.92-4.678 0-2.88-2.4-4.679-4.92-4.679zm.12 7.198h-3.24V23.04h3.24c1.68 0 2.64 1.44 2.64 2.519-.12 1.32-1.08 2.639-2.64 2.639zm13.8-2.16c-1.68 0-3.36.72-3.96 2.28l2.04.84c.48-.84 1.2-1.08 2.04-1.08 1.2 0 2.28.72 2.4 1.92v.12c-.36-.24-1.32-.6-2.28-.6-2.16 0-4.32 1.199-4.32 3.358 0 2.04 1.8 3.359 3.72 3.359 1.56 0 2.28-.72 2.88-1.44h.12v1.2h2.16v-5.758c-.24-2.639-2.28-4.198-4.8-4.198zm-.24 8.278c-.72 0-1.8-.36-1.8-1.32 0-1.2 1.32-1.56 2.4-1.56.96 0 1.44.24 2.04.48-.24 1.44-1.44 2.4-2.64 2.4zm12.6-7.918l-2.52 6.478h-.12l-2.64-6.478h-2.4l3.96 9.117-2.28 5.038h2.28l6.12-14.155h-2.4zm-20.16 9.597h2.28V21.001h-2.28v14.995z" fill="#fff"/><path d="M12.48 9.006c-.36.36-.48.96-.48 1.68v26.51c0 .72.24 1.32.6 1.68l.12.12L27.6 24.12v-.24L12.48 9.006z" fill="url(#aspaint0_linear_2677:5751)"/><path d="M32.4 29.157l-4.92-4.918v-.36l4.92-4.918.12.12 5.88 3.359c1.68.96 1.68 2.519 0 3.479l-6 3.238z" fill="url(#aspaint1_linear_2677:5751)"/><path d="M32.52 29.038L27.48 24l-15 14.995c.6.6 1.44.6 2.52.12l17.52-10.077z" fill="url(#aspaint2_linear_2677:5751)"/><path d="M32.52 18.962L15 9.006c-1.08-.6-1.92-.48-2.52.12L27.48 24l5.04-5.038z" fill="url(#aspaint3_linear_2677:5751)"/><path opacity=".2" d="M32.4 28.918L15 38.755c-.96.6-1.8.48-2.4 0l-.12.12.12.12c.6.48 1.44.6 2.4 0l17.4-10.077z" fill="#424551"/><path opacity=".2" d="M12.48 38.755c-.36-.36-.48-.96-.48-1.68v.12c0 .72.24 1.32.6 1.68v-.12h-.12zM38.4 25.559l-6 3.36.12.12 5.88-3.36c.84-.48 1.2-1.08 1.2-1.679 0 .6-.48 1.08-1.2 1.56z" fill="#424551"/><path opacity=".2" d="M15 9.125l23.4 13.316c.72.48 1.2.96 1.2 1.559 0-.6-.36-1.2-1.2-1.68L15 9.006c-1.68-.96-3-.24-3 1.68v.12c0-1.8 1.32-2.64 3-1.68z" fill="#fff"/></g><defs><linearGradient id="aspaint0_linear_2677:5751" x1="26.16" y1="10.457" x2="6.027" y2="30.596" gradientUnits="userSpaceOnUse"><stop stop-color="#00A0FF"/><stop offset=".007" stop-color="#00A1FF"/><stop offset=".26" stop-color="#00BEFF"/><stop offset=".512" stop-color="#00D2FF"/><stop offset=".76" stop-color="#00DFFF"/><stop offset="1" stop-color="#00E3FF"/></linearGradient><linearGradient id="aspaint1_linear_2677:5751" x1="40.601" y1="24" x2="11.565" y2="24" gradientUnits="userSpaceOnUse"><stop stop-color="#FFE000"/><stop offset=".409" stop-color="#FFBD00"/><stop offset=".775" stop-color="orange"/><stop offset="1" stop-color="#FF9C00"/></linearGradient><linearGradient id="aspaint2_linear_2677:5751" x1="29.793" y1="26.754" x2="2.493" y2="54.064" gradientUnits="userSpaceOnUse"><stop stop-color="#FF3A44"/><stop offset="1" stop-color="#C31162"/></linearGradient><linearGradient id="aspaint3_linear_2677:5751" x1="8.757" y1=".22" x2="20.948" y2="12.415" gradientUnits="userSpaceOnUse"><stop stop-color="#32A071"/><stop offset=".069" stop-color="#2DA771"/><stop offset=".476" stop-color="#15CF74"/><stop offset=".801" stop-color="#06E775"/><stop offset="1" stop-color="#00F076"/></linearGradient><clipPath id="asclip0_2677:5751"><path fill="#fff" d="M0 0h162v48H0z"/></clipPath></defs></svg><svg viewBox="0 0 14 15" id="home" xmlns="http://www.w3.org/2000/svg"><path fill-rule="evenodd" clip-rule="evenodd" d="M7.523 2.28a2 2 0 00-1.045 0c-.356.097-.702.35-1.687 1.117L3.057 4.745c-.634.493-.847.666-.998.87a2 2 0 00-.318.65c-.068.244-.074.518-.074 1.321V12c0 .513.008.622.03.693.064.213.23.38.444.445.07.021.18.028.693.028h.533A.667.667 0 004 12.531V10.5a3 3 0 016 0v1.916c0 .086.001.104.002.116.016.343.29.617.633.633l.116.001h.416c.514 0 .623-.007.694-.028a.667.667 0 00.444-.445c.022-.07.03-.18.03-.693V7.586c0-.803-.007-1.077-.075-1.321a2.002 2.002 0 00-.318-.65c-.15-.204-.363-.377-.998-.87L9.211 3.397C8.225 2.63 7.88 2.377 7.523 2.28zM6.13.995a3.333 3.333 0 011.742 0c.649.175 1.218.619 2.044 1.262l.114.088 1.733 1.348.07.055c.537.417.908.705 1.181 1.075.241.326.42.693.53 1.083.124.443.124.912.123 1.592v4.587c.001.38.001.71-.086.996a2 2 0 01-1.333 1.334c-.287.087-.616.086-.997.086h-.514c-.064 0-.118 0-.168-.003a2 2 0 01-1.902-2.067V10.5a1.667 1.667 0 00-3.333 0v1.93c0 .064 0 .118-.002.168a2 2 0 01-1.9 1.9c-.05.002-.104.002-.167.002H2.75c-.38 0-.71 0-.996-.086A2 2 0 01.42 13.08c-.087-.287-.086-.616-.086-.996V7.586v-.09c0-.679 0-1.148.123-1.59.11-.391.29-.758.53-1.084.274-.37.645-.658 1.18-1.075l.072-.055 1.733-1.348.113-.088C4.911 1.613 5.481 1.169 6.13.994z" fill="#424551"/></svg><svg viewBox="0 0 85 25" id="hubspot" xmlns="http://www.w3.org/2000/svg"><path d="M9.297 4.476v6.768H3.128V4.476H.2v16.157h2.928v-6.549h6.169v6.549h2.928V4.476H9.297zM21.597 15.41a2.45 2.45 0 01-.71 1.725 2.413 2.413 0 01-3.425 0 2.451 2.451 0 01-.71-1.726V8.49h-2.778v6.92c0 1.389.547 2.72 1.522 3.702a5.176 5.176 0 003.674 1.534c1.377 0 2.699-.552 3.673-1.534a5.256 5.256 0 001.522-3.702V8.49h-2.768v6.92zM42.178 9.203c0-1.419.932-1.869 1.952-1.869.822 0 1.908.63 2.618 1.396l1.82-2.16c-.908-1.238-2.75-2.094-4.259-2.094-3.013 0-5.192 1.778-5.192 4.727 0 5.47 6.634 3.734 6.634 6.795 0 .945-.91 1.779-1.951 1.779-1.643 0-2.175-.81-2.93-1.666l-2.019 2.116c1.291 1.597 2.884 2.409 4.793 2.409 2.862 0 5.165-1.8 5.165-4.614 0-6.073-6.635-4.186-6.635-6.82M83.223 18.05c-1.642 0-2.108-.715-2.108-1.811v-4.851h2.551V8.93h-2.551V5.687L78.299 6.96v9.882c0 2.527 1.73 3.801 4.103 3.801.372.007.744-.023 1.11-.09l.688-2.549c-.31.022-.666.044-.977.044M32.17 8.57c-1.375 0-2.335.403-3.264 1.32V4.574h-2.782v9.857c0 3.69 2.648 6.217 5.622 6.217 3.3 0 6.203-2.572 6.203-6.037 0-3.42-2.672-6.038-5.778-6.038v-.001zm-.017 9.256a3.14 3.14 0 01-1.753-.536 3.176 3.176 0 01-1.163-1.428 3.203 3.203 0 01.684-3.466 3.134 3.134 0 013.44-.69c.577.24 1.07.649 1.417 1.172a3.199 3.199 0 01-.393 4.016 3.144 3.144 0 01-2.232.932zM62.38 14.462c0-3.47-2.898-6.037-6.204-6.037-2.974 0-5.621 2.528-5.621 6.218v9.862h2.782V19.18c.927.917 1.888 1.32 3.263 1.32 3.106 0 5.778-2.616 5.778-6.038h.001zm-2.635-.035c0 .63-.185 1.245-.532 1.768-.347.523-.84.93-1.417 1.171a3.133 3.133 0 01-3.44-.69 3.204 3.204 0 01-.684-3.467 3.175 3.175 0 011.163-1.427 3.14 3.14 0 013.985.396c.592.596.925 1.406.925 2.25z"/><path d="M71.367 8.29V5.472c.37-.174.682-.45.902-.796.22-.346.337-.748.34-1.16v-.064c0-.576-.228-1.127-.631-1.534a2.144 2.144 0 00-1.522-.635h-.065c-.57 0-1.118.228-1.522.635-.403.407-.63.958-.63 1.534v.065c.002.41.12.813.34 1.159.22.346.532.622.901.796v2.816a6.072 6.072 0 00-2.898 1.286l-7.665-6.017a2.44 2.44 0 00.086-.608c.001-.484-.14-.957-.406-1.359A2.429 2.429 0 0057.51.69a2.407 2.407 0 00-2.644.526 2.46 2.46 0 00-.53 2.663c.184.446.494.828.893 1.097.398.27.867.413 1.346.414.42-.002.831-.115 1.194-.327l7.549 5.918a6.196 6.196 0 00.093 6.94l-2.296 2.314a1.96 1.96 0 00-.574-.094 1.98 1.98 0 00-1.105.339c-.328.22-.583.534-.733.9a2.021 2.021 0 00.432 2.187 1.987 1.987 0 002.17.436c.363-.152.674-.41.893-.739.22-.33.336-.718.336-1.115a1.995 1.995 0 00-.093-.578l2.272-2.289a6.077 6.077 0 005.284 1.08 6.108 6.108 0 002.45-1.297 6.17 6.17 0 001.632-2.251 6.214 6.214 0 00-.282-5.426 6.155 6.155 0 00-1.859-2.067 6.097 6.097 0 00-2.571-1.03zm-.941 9.262a3.125 3.125 0 01-1.745-.535 3.161 3.161 0 01-1.156-1.421 3.19 3.19 0 01.682-3.45 3.12 3.12 0 013.424-.686c.574.24 1.064.645 1.41 1.165a3.185 3.185 0 01-.39 3.998 3.13 3.13 0 01-2.222.927"/></svg><svg viewBox="0 0 21 20" id="inst" xmlns="http://www.w3.org/2000/svg"><path d="M19.98 5.88c-.046-1.063-.218-1.793-.464-2.426a4.88 4.88 0 00-1.157-1.774 4.922 4.922 0 00-1.77-1.153C15.952.281 15.226.11 14.163.063 13.093.012 12.753 0 10.037 0 7.322 0 6.982.012 5.915.059 4.853.105 4.122.277 3.49.523A4.88 4.88 0 001.715 1.68 4.924 4.924 0 00.563 3.45C.316 4.087.145 4.813.098 5.876c-.051 1.07-.063 1.41-.063 4.126 0 2.715.012 3.055.059 4.122.047 1.063.219 1.793.465 2.426a4.932 4.932 0 001.156 1.774c.5.508 1.106.902 1.77 1.152.637.247 1.364.419 2.426.465 1.067.047 1.407.059 4.122.059 2.716 0 3.056-.012 4.122-.059 1.063-.046 1.793-.218 2.426-.464a5.116 5.116 0 002.927-2.927c.246-.637.418-1.364.465-2.426.047-1.067.058-1.407.058-4.122s-.004-3.055-.05-4.122zm-1.8 8.166c-.044.977-.208 1.504-.345 1.856a3.317 3.317 0 01-1.898 1.898c-.352.137-.883.301-1.856.344-1.055.047-1.371.059-4.04.059-2.668 0-2.989-.012-4.04-.059-.977-.043-1.504-.207-1.856-.344a3.077 3.077 0 01-1.148-.746 3.11 3.11 0 01-.747-1.148c-.136-.352-.3-.883-.343-1.856-.047-1.055-.059-1.372-.059-4.04 0-2.669.012-2.99.059-4.04.043-.977.207-1.504.343-1.856A3.04 3.04 0 013 2.965a3.105 3.105 0 011.15-.746c.35-.137.882-.3 1.855-.344 1.055-.046 1.372-.058 4.04-.058 2.672 0 2.989.012 4.04.058.977.043 1.504.207 1.856.344.433.16.828.414 1.148.746.332.325.586.715.747 1.15.136.35.3.882.343 1.855.047 1.055.059 1.371.059 4.04 0 2.668-.012 2.98-.059 4.036z"/><path d="M10.037 4.864A5.139 5.139 0 004.9 10.002a5.139 5.139 0 105.138-5.138zm0 8.47a3.333 3.333 0 11.001-6.666 3.333 3.333 0 010 6.667zM16.578 4.661a1.2 1.2 0 11-2.4 0 1.2 1.2 0 012.4 0z"/></svg><svg viewBox="0 0 16 16" id="instagram" xmlns="http://www.w3.org/2000/svg"><path d="M14.654 5.254c-.031-.708-.146-1.195-.31-1.618-.169-.448-.43-.849-.77-1.182a3.281 3.281 0 00-1.18-.768c-.425-.164-.91-.28-1.618-.31-.714-.034-.94-.042-2.75-.042s-2.037.008-2.749.04c-.708.03-1.195.145-1.617.309-.448.17-.85.43-1.183.771a3.283 3.283 0 00-.768 1.18c-.164.425-.279.909-.31 1.617-.034.714-.042.94-.042 2.751 0 1.81.008 2.037.04 2.748.03.708.145 1.195.31 1.617.169.448.432.85.77 1.183.334.338.738.602 1.18.768.425.164.91.279 1.618.31.71.031.938.04 2.748.04 1.81 0 2.037-.008 2.748-.04.708-.031 1.195-.146 1.617-.31a3.41 3.41 0 001.951-1.95c.164-.425.279-.91.31-1.618.031-.711.04-.938.04-2.748 0-1.81-.004-2.037-.035-2.748zm-1.2 5.444c-.03.651-.139 1.003-.23 1.237a2.211 2.211 0 01-1.266 1.266c-.234.091-.588.2-1.237.23-.703.03-.914.038-2.693.038s-1.993-.008-2.693-.039c-.651-.028-1.003-.138-1.237-.23a2.051 2.051 0 01-.766-.497 2.073 2.073 0 01-.498-.765c-.09-.235-.2-.589-.229-1.238-.031-.703-.039-.914-.039-2.693s.008-1.992.04-2.693c.028-.651.137-1.003.228-1.237.107-.29.276-.552.5-.766a2.07 2.07 0 01.766-.498c.235-.09.589-.2 1.237-.229.704-.031.915-.039 2.694-.039 1.781 0 1.992.008 2.693.04.651.028 1.003.137 1.237.228.29.107.552.276.766.498.221.216.39.477.497.766.091.234.2.588.23 1.237.03.703.039.914.039 2.693 0 1.78-.008 1.988-.04 2.69z"/><path d="M8.025 4.577a3.426 3.426 0 10.002 6.852 3.426 3.426 0 00-.002-6.852zm0 5.647a2.222 2.222 0 11.001-4.445 2.222 2.222 0 010 4.445zM12.386 4.441a.8.8 0 11-1.6 0 .8.8 0 011.6 0z"/></svg><svg viewBox="0 0 14 14" id="linkedin" xmlns="http://www.w3.org/2000/svg"><path d="M13.664 13.666h.003v-4.89c0-2.392-.515-4.235-3.311-4.235-1.345 0-2.247.738-2.615 1.437H7.7V4.764h-2.65v8.902h2.76V9.258c0-1.16.22-2.283 1.657-2.283 1.416 0 1.438 1.325 1.438 2.357v4.334h2.758zM.554 4.765h2.764v8.901H.554V4.765zM1.935.333C1.051.333.334 1.05.334 1.934S1.051 3.55 1.935 3.55s1.601-.732 1.601-1.616c0-.884-.718-1.601-1.6-1.601z"/></svg><svg fill="none" viewBox="0 0 55 42" id="mastercard" xmlns="http://www.w3.org/2000/svg"><path d="M53.198 41.426v.108h.101a.106.106 0 00.054-.014.049.049 0 00.02-.04.046.046 0 00-.02-.041.098.098 0 00-.054-.014h-.1v.001zm.102-.076a.186.186 0 01.121.035.116.116 0 01.042.095.108.108 0 01-.034.084.166.166 0 01-.096.04l.135.154h-.104l-.124-.152h-.04v.152h-.087v-.408h.188zm-.027.55a.347.347 0 00.314-.208.35.35 0 000-.268.355.355 0 00-.181-.181.355.355 0 00-.268 0 .346.346 0 00-.11.073.35.35 0 000 .486.347.347 0 00.245.1v-.003zm0-.78a.452.452 0 01.413.269.434.434 0 01-.096.481.442.442 0 01-.317.13.449.449 0 01-.45-.445.434.434 0 01.274-.405.448.448 0 01.178-.035l-.002.004zm-41.326-1.578c0-.778.51-1.418 1.344-1.418.796 0 1.334.612 1.334 1.418 0 .806-.538 1.419-1.334 1.419-.834 0-1.344-.64-1.344-1.419zm3.586 0v-2.215h-.963v.54c-.306-.4-.769-.65-1.4-.65-1.24 0-2.215.974-2.215 2.326 0 1.353.974 2.327 2.216 2.327.63 0 1.094-.25 1.399-.65v.538h.962v-2.216h.001zm32.547 0c0-.778.51-1.418 1.345-1.418.797 0 1.334.612 1.334 1.418 0 .806-.537 1.419-1.334 1.419-.834 0-1.345-.64-1.345-1.419zm3.588 0v-3.994h-.964v2.318c-.306-.399-.77-.649-1.4-.649-1.24 0-2.215.974-2.215 2.326 0 1.353.974 2.327 2.216 2.327.63 0 1.093-.25 1.399-.65v.538h.964v-2.216zm-24.18-1.464c.621 0 1.02.39 1.122 1.075H26.31c.103-.64.491-1.075 1.178-1.075zm.02-.863c-1.298 0-2.206.944-2.206 2.326 0 1.409.944 2.326 2.27 2.326.668 0 1.279-.166 1.816-.62l-.472-.715a2.112 2.112 0 01-1.288.464c-.621 0-1.186-.288-1.325-1.085h3.289c.01-.12.019-.24.019-.37-.01-1.381-.864-2.326-2.104-2.326zm11.63 2.326c0-.779.51-1.419 1.343-1.419.797 0 1.334.612 1.334 1.419 0 .806-.537 1.418-1.334 1.418-.834 0-1.344-.64-1.344-1.418zm3.585 0v-2.214h-.962v.54c-.307-.4-.77-.65-1.4-.65-1.241 0-2.215.974-2.215 2.326 0 1.353.973 2.327 2.215 2.327.63 0 1.093-.25 1.4-.65v.538h.962v-2.217zm-9.026 0c0 1.344.936 2.326 2.364 2.326.667 0 1.111-.148 1.592-.528l-.463-.779c-.361.26-.741.399-1.16.399-.77-.01-1.334-.566-1.334-1.418 0-.853.565-1.409 1.334-1.419.418 0 .798.14 1.16.4l.463-.78c-.481-.38-.926-.527-1.592-.527-1.428 0-2.364.982-2.364 2.326zm12.418-2.326c-.555 0-.917.26-1.168.649v-.537h-.954v4.429h.964v-2.483c0-.733.315-1.14.945-1.14.206-.003.41.034.602.111l.297-.908a2.047 2.047 0 00-.686-.12v-.002zm-25.82.464c-.463-.306-1.102-.464-1.806-.464-1.122 0-1.845.538-1.845 1.418 0 .722.538 1.168 1.529 1.307l.455.065c.528.074.777.213.777.463 0 .343-.35.538-1.01.538-.666 0-1.148-.213-1.473-.463l-.452.75c.528.39 1.195.576 1.918.576 1.279 0 2.02-.603 2.02-1.446 0-.779-.583-1.186-1.547-1.325l-.454-.066c-.417-.054-.751-.138-.751-.435 0-.324.315-.518.843-.518.566 0 1.113.213 1.381.38l.417-.78h-.002zm12.43-.463c-.556 0-.918.26-1.167.65v-.54h-.955v4.43h.963v-2.483c0-.733.315-1.14.945-1.14.206-.003.41.034.602.111l.297-.908a2.047 2.047 0 00-.686-.12zm-8.22.11h-1.576v-1.343h-.973v1.344h-.899v.88h.899v2.02c0 1.028.399 1.64 1.538 1.64.418 0 .9-.13 1.205-.342l-.278-.825c-.288.167-.602.25-.853.25-.482 0-.639-.296-.639-.74v-2.002h1.576v-.881zm-14.402 4.431v-2.78c0-1.047-.667-1.751-1.742-1.76-.566-.01-1.15.166-1.558.787-.305-.49-.787-.788-1.463-.788-.474 0-.936.14-1.298.658v-.547h-.964v4.429h.972V39.3c0-.769.426-1.178 1.085-1.178.64 0 .963.417.963 1.168v2.465h.974V39.3c0-.768.444-1.177 1.084-1.177.657 0 .971.417.971 1.168v2.465l.976.002z" fill="#231F20"/><path d="M53.75 27.022v-.648h-.17l-.194.445-.194-.445h-.17v.648h.12v-.488l.183.42h.124l.182-.421v.489h.12-.001zm-1.07 0v-.537h.215v-.11h-.551v.11h.216v.537h.12z" fill="#F79410"/><path d="M34.578 29.801H19.98V3.567h14.598v26.234z" fill="#FF5F00"/><path d="M20.905 16.684a16.657 16.657 0 016.372-13.117A16.61 16.61 0 0016.967 0C7.754 0 .285 7.47.285 16.684c0 9.215 7.469 16.684 16.682 16.684a16.611 16.611 0 0010.31-3.567 16.656 16.656 0 01-6.372-13.117z" fill="#EB001B"/><path d="M54.27 16.684c0 9.215-7.468 16.684-16.681 16.684a16.616 16.616 0 01-10.312-3.567 16.654 16.654 0 006.373-13.117 16.654 16.654 0 00-6.373-13.117A16.616 16.616 0 0137.588 0C46.802 0 54.27 7.47 54.27 16.684" fill="#F79E1B"/></svg><svg viewBox="0 0 123 27" id="microsoft" xmlns="http://www.w3.org/2000/svg"><g clip-path="url(#azclip0_34_605)"><path d="M43.663 15.476l-.727 2.055h-.06a14.566 14.566 0 00-.707-2.015L38.27 5.743h-3.817V21.32h2.525v-9.612c0-.605 0-1.29-.02-2.136-.02-.423-.061-.746-.081-.988h.06c.121.605.263 1.048.364 1.33l4.686 11.365h1.777L48.41 9.814c.101-.262.202-.786.303-1.23h.06c-.06 1.149-.1 2.177-.12 2.801v9.874h2.686V5.703h-3.676l-4 9.773zm10.22-5.38h2.627v11.163h-2.626V10.096zm1.334-4.716c-.444 0-.808.162-1.11.444a1.428 1.428 0 00-.465 1.088c0 .423.161.786.464 1.068.303.282.667.423 1.111.423.444 0 .828-.161 1.111-.423.303-.282.465-.645.465-1.068 0-.423-.162-.786-.465-1.088-.263-.282-.646-.444-1.11-.444zm10.604 4.615c-.484-.1-.99-.161-1.474-.161-1.192 0-2.283.262-3.191.786-.91.524-1.637 1.249-2.101 2.156-.485.927-.727 1.995-.727 3.224 0 1.068.242 2.015.707 2.881.464.847 1.11 1.532 1.98 1.995.827.464 1.797.706 2.888.706 1.252 0 2.322-.262 3.17-.746l.02-.02v-2.418l-.1.08a4.52 4.52 0 01-1.273.665c-.464.162-.888.242-1.252.242-1.05 0-1.878-.302-2.464-.967-.606-.645-.91-1.531-.91-2.64 0-1.148.304-2.055.93-2.72.626-.665 1.454-1.008 2.464-1.008.849 0 1.717.282 2.505.847l.1.08v-2.559l-.02-.02c-.343-.141-.726-.302-1.252-.403zm8.666-.08c-.647 0-1.253.2-1.778.624-.444.363-.747.887-1.01 1.511h-.02v-1.954h-2.626v11.163h2.626v-5.702c0-.968.202-1.774.646-2.358.445-.605 1.01-.907 1.697-.907.242 0 .485.06.788.1.282.082.484.162.626.263l.1.08v-2.62l-.06-.02c-.181-.12-.545-.18-.99-.18zm7.15-.061c-1.838 0-3.313.544-4.343 1.612-1.05 1.068-1.555 2.539-1.555 4.393 0 1.733.525 3.143 1.535 4.171 1.01 1.008 2.383 1.532 4.1 1.532 1.798 0 3.232-.545 4.262-1.633 1.05-1.088 1.556-2.539 1.556-4.332 0-1.773-.485-3.184-1.475-4.212-.95-1.027-2.343-1.531-4.08-1.531zm2.1 8.584c-.484.625-1.252.927-2.201.927-.95 0-1.717-.302-2.262-.967-.546-.625-.808-1.532-.808-2.68 0-1.19.283-2.096.808-2.74.545-.646 1.292-.968 2.242-.968.929 0 1.656.302 2.181.927.525.625.808 1.532.808 2.72-.04 1.21-.262 2.157-.767 2.781zm9.312-3.708c-.828-.342-1.353-.604-1.596-.826-.202-.201-.303-.483-.303-.846 0-.302.122-.605.425-.806.303-.202.646-.302 1.151-.302.444 0 .909.08 1.353.201.445.121.849.302 1.172.544l.1.08v-2.458l-.06-.02a7.3 7.3 0 00-1.191-.342c-.485-.081-.93-.121-1.293-.121-1.252 0-2.283.302-3.09.967-.809.625-1.192 1.471-1.192 2.458 0 .524.08.988.262 1.37.182.383.445.746.808 1.049.364.282.889.604 1.616.906.606.262 1.07.464 1.353.625.283.161.465.343.606.484.101.16.162.362.162.624 0 .746-.566 1.109-1.717 1.109-.444 0-.909-.081-1.454-.262a5.62 5.62 0 01-1.475-.746l-.1-.08v2.559l.06.02c.384.181.848.302 1.414.443.565.1 1.07.181 1.515.181 1.353 0 2.464-.302 3.252-.967.808-.645 1.232-1.47 1.232-2.539 0-.745-.202-1.41-.647-1.914a8.193 8.193 0 00-2.363-1.39zm9.938-4.876c-1.838 0-3.313.544-4.343 1.612-1.03 1.068-1.555 2.539-1.555 4.393 0 1.733.525 3.143 1.535 4.171 1.01 1.008 2.383 1.532 4.1 1.532 1.798 0 3.232-.545 4.262-1.633 1.051-1.088 1.556-2.539 1.556-4.332 0-1.773-.485-3.184-1.475-4.212-.949-1.027-2.343-1.531-4.08-1.531zm2.08 8.584c-.484.625-1.252.927-2.201.927-.97 0-1.717-.302-2.263-.967-.545-.625-.807-1.532-.807-2.68 0-1.19.282-2.096.807-2.74.546-.646 1.293-.968 2.243-.968.908 0 1.656.302 2.181.927.525.625.808 1.532.808 2.72 0 1.21-.263 2.157-.768 2.781zm17.513-6.186v-2.156h-2.646V6.79l-.081.02-2.505.746-.06.02v2.519h-3.959v-1.41c0-.646.161-1.15.444-1.472.283-.322.707-.484 1.232-.484.364 0 .747.081 1.172.262l.101.06V4.777l-.061-.02c-.364-.121-.848-.202-1.474-.202a4.74 4.74 0 00-2.101.484 3.498 3.498 0 00-1.434 1.43c-.344.605-.525 1.29-.525 2.076v1.552h-1.838v2.136h1.838v9.027h2.646v-9.007h3.959v5.743c0 2.357 1.111 3.546 3.332 3.546.364 0 .748-.06 1.111-.12.384-.081.667-.182.828-.262l.021-.02v-2.157l-.101.08c-.162.102-.303.182-.546.243-.202.06-.384.08-.525.08-.525 0-.889-.12-1.151-.423-.243-.282-.364-.745-.364-1.43v-5.28h2.687zM.6.503h12.382v12.353H.6V.503zM14.274.503h12.382v12.353H14.274V.503zM.6 14.145h12.382v12.353H.6V14.145zM14.274 14.145h12.382v12.353H14.274V14.145z"/></g><defs><clipPath id="azclip0_34_605"><path fill="#fff" transform="translate(.6 .503)" d="M0 0h122v25.995H0z"/></clipPath></defs></svg><svg viewBox="0 0 15 13" id="pass" xmlns="http://www.w3.org/2000/svg"><path d="M1.76 3.679c1.803-1.504 3.878-2.346 6.073-2.346 2.194 0 4.27.842 6.073 2.346a.667.667 0 00.854-1.024C12.755.982 10.386 0 7.833 0S2.91.982.906 2.655a.667.667 0 10.854 1.024z" fill="#424551"/><path fill-rule="evenodd" clip-rule="evenodd" d="M2.733 4.46c1.2-1.013 2.91-1.96 4.85-1.96 1.94 0 3.65.947 4.85 1.96.604.51 1.1 1.054 1.45 1.54.174.242.32.48.425.7.096.203.191.459.191.717 0 .257-.095.513-.191.716-.105.22-.25.458-.426.7a8.856 8.856 0 01-1.45 1.541c-1.199 1.012-2.909 1.96-4.85 1.96-1.94 0-3.65-.948-4.849-1.96a8.852 8.852 0 01-1.45-1.54 4.63 4.63 0 01-.425-.701C.76 7.93.666 7.674.666 7.417c0-.258.095-.514.192-.716.105-.221.25-.459.425-.701.35-.486.846-1.03 1.45-1.54zm-.729 2.957c.007.022.022.069.058.143.061.13.161.298.303.494.282.392.702.857 1.228 1.301C4.656 10.253 6.071 11 7.583 11c1.511 0 2.926-.747 3.989-1.645.527-.444.946-.91 1.229-1.3.141-.197.241-.365.303-.495.035-.074.05-.12.057-.143a1.015 1.015 0 00-.057-.144 3.322 3.322 0 00-.303-.494 7.524 7.524 0 00-1.229-1.3 8.276 8.276 0 00-.715-.542 3.417 3.417 0 11-6.548 0c-.253.17-.492.352-.716.541-.526.445-.946.91-1.228 1.301a3.323 3.323 0 00-.303.494 1.01 1.01 0 00-.058.144zm3.495-1.5a2.083 2.083 0 114.167 0 2.083 2.083 0 01-4.167 0z" fill="#424551"/></svg><svg fill="none" viewBox="0 0 78 21" id="paypal" xmlns="http://www.w3.org/2000/svg"><path d="M14.274 2.381C13.358 1.337 11.703.89 9.584.89H3.436a.88.88 0 00-.87.742L.005 17.87a.528.528 0 00.522.61h3.796l.953-6.047-.03.19a.878.878 0 01.867-.743h1.804c3.543 0 6.318-1.44 7.128-5.603.024-.123.045-.243.063-.36.24-1.54-.002-2.587-.834-3.535" fill="#003087"/><path d="M60.744 10.108c-.232 1.524-1.395 1.524-2.52 1.524h-.64l.448-2.845a.354.354 0 01.35-.298h.294c.766 0 1.49 0 1.862.436.223.26.29.648.206 1.183zm-.49-3.975H56.01a.591.591 0 00-.584.498l-1.715 10.883a.354.354 0 00.35.409h2.178a.413.413 0 00.407-.348l.487-3.087a.59.59 0 01.583-.498h1.343c2.796 0 4.41-1.352 4.83-4.034.19-1.172.008-2.094-.54-2.74-.604-.708-1.674-1.084-3.094-1.084" fill="#009CDE"/><path d="M30.47 10.108c-.231 1.524-1.395 1.524-2.52 1.524h-.64l.449-2.845a.354.354 0 01.349-.298h.294c.766 0 1.49 0 1.862.436.224.261.291.648.207 1.183zm-.489-3.975h-4.245a.59.59 0 00-.582.498l-1.716 10.883a.354.354 0 00.35.409h2.026a.59.59 0 00.582-.498l.464-2.936a.59.59 0 01.582-.498h1.343c2.797 0 4.41-1.353 4.831-4.035.19-1.172.008-2.094-.54-2.739-.605-.71-1.674-1.085-3.095-1.085zm9.854 7.882c-.197 1.162-1.118 1.942-2.294 1.942-.59 0-1.061-.19-1.364-.55-.301-.355-.414-.862-.319-1.427.183-1.15 1.12-1.955 2.278-1.955.577 0 1.045.191 1.355.553.311.366.434.876.344 1.438zm2.833-3.956h-2.032a.354.354 0 00-.35.3l-.09.567-.142-.206c-.44-.638-1.42-.852-2.4-.852-2.246 0-4.164 1.702-4.537 4.088-.194 1.191.081 2.329.757 3.123.62.73 1.505 1.033 2.56 1.033 1.81 0 2.813-1.162 2.813-1.162l-.09.565a.354.354 0 00.349.409h1.83a.59.59 0 00.583-.498l1.099-6.958a.354.354 0 00-.35-.409" fill="#003087"/><path d="M70.108 14.015c-.197 1.162-1.118 1.942-2.294 1.942-.59 0-1.062-.19-1.365-.55-.301-.355-.414-.862-.319-1.427.183-1.15 1.12-1.955 2.278-1.955.577 0 1.045.191 1.355.553.311.366.434.876.345 1.438zm2.832-3.956h-2.032a.354.354 0 00-.35.3l-.09.567-.142-.206c-.44-.638-1.42-.852-2.4-.852-2.245 0-4.163 1.702-4.537 4.088-.194 1.191.082 2.329.757 3.123.62.73 1.505 1.033 2.56 1.033 1.81 0 2.814-1.162 2.814-1.162l-.09.565a.355.355 0 00.2.376.352.352 0 00.148.033h1.83a.59.59 0 00.583-.498l1.099-6.958a.354.354 0 00-.35-.409" fill="#009CDE"/><path d="M53.494 10.06h-2.043a.587.587 0 00-.487.258l-2.819 4.15-1.195-3.988a.59.59 0 00-.565-.421h-2.008a.354.354 0 00-.335.468l2.25 6.603-2.116 2.986a.354.354 0 00.289.558h2.041a.59.59 0 00.484-.254l6.794-9.805a.354.354 0 00-.29-.556z" fill="#003087"/><path d="M75.337 6.433l-1.743 11.082a.353.353 0 00.35.409h1.752a.59.59 0 00.582-.498l1.718-10.884a.353.353 0 00-.35-.409h-1.96a.353.353 0 00-.35.299" fill="#009CDE"/><path d="M14.274 2.381C13.358 1.337 11.703.89 9.584.89H3.436a.88.88 0 00-.87.742L.005 17.87a.528.528 0 00.522.61h3.796l.953-6.047-.03.19a.878.878 0 01.867-.743h1.804c3.543 0 6.318-1.44 7.128-5.603.024-.123.045-.243.063-.36.24-1.54-.002-2.587-.834-3.535" fill="#003087"/><path d="M6.302 5.936a.77.77 0 01.76-.65h4.82c.57 0 1.103.038 1.59.116.266.043.529.101.788.176.294.083.578.196.849.338.242-1.54-.002-2.586-.834-3.535C13.358 1.337 11.703.89 9.585.89h-6.15a.88.88 0 00-.868.742L.007 17.868a.528.528 0 00.52.61h3.797l.953-6.047 1.025-6.495z" fill="#003087"/><path d="M15.108 5.916c-.018.12-.04.24-.063.36-.81 4.163-3.585 5.603-7.128 5.603H6.113a.876.876 0 00-.866.742l-.924 5.857-.263 1.662a.462.462 0 00.457.534h3.2a.77.77 0 00.76-.65l.03-.163.604-3.822.038-.211a.77.77 0 01.761-.65h.479c3.1 0 5.527-1.258 6.236-4.901.295-1.521.142-2.793-.64-3.685a3.055 3.055 0 00-.877-.676z" fill="#009CDE"/><path d="M14.259 5.579a6.77 6.77 0 00-.789-.175 9.94 9.94 0 00-1.59-.117H7.06a.768.768 0 00-.76.65l-1.024 6.496-.03.19a.877.877 0 01.866-.744h1.804c3.544 0 6.318-1.439 7.129-5.602.024-.124.044-.243.063-.36a4.378 4.378 0 00-.85-.339" fill="#012169"/></svg><svg viewBox="0 0 7 7" id="phone" xmlns="http://www.w3.org/2000/svg"><path d="M5.833 4.854a.212.212 0 00-.009-.073c-.006-.016-.033-.04-.082-.076a1.857 1.857 0 00-.184-.114 22.555 22.555 0 01-.217-.12 9.7 9.7 0 00-.337-.183 1.627 1.627 0 01-.087-.059.702.702 0 00-.114-.068.231.231 0 00-.095-.023c-.046 0-.101.031-.167.093-.065.063-.125.131-.18.206a1.777 1.777 0 01-.175.205c-.062.062-.113.093-.153.093a.223.223 0 01-.075-.016.714.714 0 01-.148-.073 1.85 1.85 0 01-.064-.039 3.43 3.43 0 01-.775-.576 3.632 3.632 0 01-.578-.777 1.85 1.85 0 01-.082-.141.715.715 0 01-.03-.071.223.223 0 01-.016-.075c0-.04.031-.09.093-.153.063-.062.131-.12.205-.175.075-.055.143-.115.206-.18.062-.066.093-.121.093-.167a.231.231 0 00-.023-.095.702.702 0 00-.068-.114 1.627 1.627 0 01-.06-.087 7.774 7.774 0 00-.182-.337c-.04-.07-.08-.142-.12-.217a1.857 1.857 0 00-.114-.184c-.035-.049-.06-.076-.076-.082a.212.212 0 00-.073-.01 1.2 1.2 0 00-.46.1c-.14.065-.261.208-.364.432a1.447 1.447 0 00-.155.594c0 .049.003.1.011.155a1.493 1.493 0 00.064.29l.045.134a15.652 15.652 0 01.108.287c.182.498.51.985.986 1.46.476.476.963.805 1.46.987l.138.05.15.058a2.496 2.496 0 00.285.086c.038.008.084.015.139.023.054.008.106.011.155.011.173 0 .371-.051.594-.155.224-.103.367-.224.431-.364a1.2 1.2 0 00.1-.46zM7 1.312v4.375c0 .362-.128.671-.385.928A1.264 1.264 0 015.687 7H1.313c-.361 0-.67-.128-.927-.385A1.264 1.264 0 010 5.687V1.313C0 .952.128.642.385.385S.951 0 1.312 0h4.375c.362 0 .671.128.928.385S7 .951 7 1.312z"/></svg><svg viewBox="0 0 16 16" id="pinterest" xmlns="http://www.w3.org/2000/svg"><path d="M8.2.666C4.153.666 2 3.243 2 6.051c0 1.303.733 2.927 1.907 3.443.334.15.29-.033.578-1.127a.258.258 0 00-.063-.255c-1.677-1.927-.327-5.888 3.54-5.888 5.595 0 4.55 7.689.973 7.689-.922 0-1.609-.719-1.391-1.608.263-1.06.779-2.198.779-2.96 0-1.925-2.887-1.64-2.887.91 0 .787.281 1.32.281 1.32s-.929 3.724-1.1 4.42c-.293 1.179.039 3.086.067 3.25.018.09.12.12.178.045.091-.12 1.214-1.71 1.528-2.859l.584-2.117c.31.555 1.202 1.02 2.153 1.02C11.956 11.333 14 8.863 14 5.8 13.99 2.864 11.459.666 8.2.666z"/></svg><svg fill="none" viewBox="0 0 30 30" id="play" xmlns="http://www.w3.org/2000/svg"><path fill-rule="evenodd" clip-rule="evenodd" d="M20.422 12.881a2.667 2.667 0 010 4.237l-6.106 4.668c-1.755 1.34-4.286.09-4.286-2.119v-9.335c0-2.208 2.531-3.46 4.286-2.118l6.106 4.667zM18.803 15l-6.107-4.668v9.335L18.803 15z" fill="#fff"/><path fill-rule="evenodd" clip-rule="evenodd" d="M14.999 3c-6.628 0-12 5.372-12 12 0 6.627 5.372 12 12 12 6.627 0 12-5.373 12-12 0-6.628-5.373-12-12-12zM.332 15C.332 6.9 6.899.333 14.999.333S29.665 6.899 29.665 15c0 8.1-6.566 14.666-14.666 14.666C6.899 29.666.332 23.1.332 15z" fill="#fff"/></svg><svg viewBox="0 0 17 22" id="profile" xmlns="http://www.w3.org/2000/svg"><circle cx="8.579" cy="6.278" r="4.778" stroke="#222" stroke-width="1.5" stroke-linecap="round" stroke-linejoin="round"/><path fill-rule="evenodd" clip-rule="evenodd" d="M1 17.701a2.214 2.214 0 01.22-.97c.457-.915 1.748-1.4 2.819-1.62a16.793 16.793 0 012.343-.33 25.059 25.059 0 014.385 0c.787.056 1.57.166 2.343.33 1.07.22 2.361.659 2.82 1.62a2.27 2.27 0 010 1.95c-.459.96-1.75 1.4-2.82 1.61-.772.172-1.555.286-2.343.34-1.188.1-2.38.118-3.57.054-.275 0-.54 0-.815-.055a15.43 15.43 0 01-2.334-.338c-1.08-.21-2.361-.65-2.828-1.611A2.28 2.28 0 011 17.7z" stroke="#222" stroke-width="1.5" stroke-linecap="round" stroke-linejoin="round"/></svg><svg viewBox="0 0 16 16" id="search" xmlns="http://www.w3.org/2000/svg"><path fill-rule="evenodd" clip-rule="evenodd" d="M7.25 2.166a5.083 5.083 0 100 10.167 5.083 5.083 0 000-10.167zM.835 7.25a6.417 6.417 0 1111.399 4.044l2.739 2.734a.667.667 0 11-.942.944l-2.74-2.736A6.417 6.417 0 01.834 7.25z"/></svg><svg viewBox="0 0 16 16" id="twitter" xmlns="http://www.w3.org/2000/svg"><path d="M15 3.849a5.935 5.935 0 01-1.65.433 2.786 2.786 0 001.263-1.52 5.948 5.948 0 01-1.825.667 2.924 2.924 0 00-2.096-.868C9.106 2.56 7.82 3.79 7.82 5.31c0 .215.026.425.075.626-2.387-.114-4.503-1.21-5.92-2.873a2.641 2.641 0 00-.388 1.382c0 .954.507 1.796 1.277 2.289a2.97 2.97 0 01-1.3-.345v.034c0 1.332.99 2.444 2.303 2.697a3.03 3.03 0 01-.757.096c-.185 0-.365-.018-.54-.051.365 1.093 1.425 1.888 2.682 1.91a5.926 5.926 0 01-3.567 1.175A6.37 6.37 0 011 12.212a8.382 8.382 0 004.402 1.237c5.283 0 8.171-4.19 8.171-7.823l-.01-.356A5.608 5.608 0 0015 3.849z"/></svg><svg viewBox="0 0 22 22" id="upload" xmlns="http://www.w3.org/2000/svg"><path fill-rule="evenodd" clip-rule="evenodd" d="M10.293.543a1 1 0 011.414 0l4.5 4.5a1 1 0 01-1.414 1.414L12 3.664V16.25a1 1 0 11-2 0V3.664L7.207 6.457a1 1 0 01-1.414-1.414l4.5-4.5zM1.25 13a1 1 0 011 1v3.75a2 2 0 002 2h13.5a2 2 0 002-2V14a1 1 0 112 0v3.75a4 4 0 01-4 4H4.25a4 4 0 01-4-4V14a1 1 0 011-1z" fill="#9A9CA5"/></svg><svg fill="none" viewBox="0 0 72 24" id="visa" xmlns="http://www.w3.org/2000/svg"><path d="M30.827 22.685h-5.803L28.651.398h5.803l-3.627 22.287zM20.143.398l-5.532 15.33-.654-3.302v.001L12.005 2.405S11.769.398 9.252.398H.107L0 .776s2.797.581 6.07 2.547l5.04 19.363h6.046L26.388.398h-6.245zM65.78 22.685h5.328L66.464.398H61.8c-2.154 0-2.679 1.66-2.679 1.66l-8.654 20.627h6.05l1.209-3.31h7.376l.68 3.31zM59.397 14.8l3.048-8.34 1.716 8.34h-4.764zM50.92 5.758L51.75.972S49.194 0 46.531 0c-2.88 0-9.718 1.258-9.718 7.378 0 5.758 8.026 5.83 8.026 8.854 0 3.024-7.199 2.482-9.575.575l-.862 5.004s2.59 1.258 6.55 1.258c3.959 0 9.932-2.05 9.932-7.63 0-5.794-8.097-6.334-8.097-8.853 0-2.52 5.651-2.197 8.134-.828z" fill="#2566AF"/><path d="M13.957 12.427L12.005 2.404S11.769.397 9.252.397H.107L0 .775s4.395.91 8.611 4.324c4.032 3.262 5.346 7.328 5.346 7.328z" fill="#E6A540"/></svg><svg viewBox="0 0 112 27" id="walmart" xmlns="http://www.w3.org/2000/svg"><g clip-path="url(#bkclip0_34_611)"><path d="M40.302 9.749v1.473h.045c.53-.789 1.41-1.717 3.361-1.717 1.518 0 2.683.772 3.181 1.939h.045c.427-.59.915-1.037 1.463-1.353.648-.375 1.369-.59 2.277-.59 2.055 0 3.874 1.337 3.874 4.707v6.391h-3.133v-5.945c0-1.708-.617-2.695-1.899-2.695-.939 0-1.622.593-1.881 1.323-.09.251-.132.593-.132.88v6.44H44.37v-6.189c0-1.45-.592-2.457-1.857-2.457-1.012 0-1.646.75-1.906 1.391-.111.274-.146.59-.146.887v6.365h-3.136V9.749h2.977zm30.416 0v2.047h.086c.575-1.565 1.94-2.291 3.14-2.291.301 0 .468.022.71.068v2.842c-.287-.04-.554-.078-.929-.078-1.358 0-2.304.743-2.543 1.906-.052.242-.07.502-.07.802v5.557h-3.215V9.75h2.82zm8.302-3.595V9.57h2.717v2.764h-2.716v4.077c0 1.32.356 1.959 1.417 1.959.499 0 .866-.059 1.185-.134l.042 2.291c-.427.15-1.335.313-2.256.313-1.085 0-1.99-.355-2.54-.906-.631-.629-.922-1.659-.922-3.126V6.154h3.073zM35.142 20.599h-3.119V6.154h3.119v14.445zm-8.317-3.875c0 .199-.017.407-.076.586-.243.753-1.071 1.389-2.104 1.389-.863 0-1.549-.46-1.549-1.434 0-1.49 1.747-1.904 3.732-1.894v1.353h-.003zm3.115-2.598c0-2.46-1.116-4.621-4.89-4.621-1.937 0-3.475.511-4.314.967l.614 1.976c.765-.457 1.989-.832 3.146-.832 1.917-.003 2.228 1.02 2.228 1.676v.156c-4.175-.006-6.813 1.353-6.813 4.123 0 1.692 1.342 3.276 3.677 3.276 1.438 0 2.637-.538 3.358-1.402h.07s.478 1.874 3.105 1.157c-.14-.782-.184-1.613-.184-2.614v-3.862h.003zM4.244 6.154c.323 1.529 1.238 5.968 1.238 5.968.384 1.825.738 3.738 1.005 5.25h.048c.26-1.606.669-3.129 1.106-5.012l1.542-6.206h3.413l1.442 6.365c.377 1.77.679 3.136.918 4.782h.045c.26-1.663.6-3.084.97-4.902l1.387-6.245h3.274l-4.058 14.445c-2.585.531-3.576-.447-3.93-1.998-.353-1.555-1.046-4.51-1.046-4.51-.357-1.62-.634-2.761-.828-4.423h-.049c-.277 1.645-.568 2.8-.998 4.419l-1.701 6.515c-2.64.496-3.556-.238-4.062-2.23C3.524 16.669.8 6.158.8 6.158h3.444v-.003zM62.7 16.724c0 .199-.018.407-.077.586-.242.753-1.07 1.389-2.103 1.389-.863 0-1.55-.46-1.55-1.434 0-1.49 1.747-1.904 3.733-1.894v1.353h-.003zm3.115-2.598c0-2.46-1.116-4.621-4.89-4.621-1.937 0-3.475.511-4.314.967l.613 1.976c.766-.457 1.99-.832 3.147-.832 1.913-.003 2.228 1.02 2.228 1.676v.156c-4.172-.006-6.81 1.353-6.81 4.123 0 1.692 1.345 3.276 3.677 3.276 1.435 0 2.637-.538 3.355-1.402h.073s.478 1.874 3.105 1.157c-.139-.782-.184-1.613-.184-2.614v-3.862zM94.38 15.624c.308.528.287 1.116-.041 1.385l-5.672 3.918c-.59.336-1.475-.072-1.976-.926-.504-.858-.415-1.814.176-2.151l6.28-2.88c.394-.15.926.127 1.233.654zm7.465 0c.311-.527.839-.8 1.233-.657l6.283 2.88c.591.336.677 1.293.176 2.15-.504.855-1.392 1.26-1.979.926l-5.672-3.917c-.325-.266-.349-.858-.041-1.382zm-3.734 2.124c.618 0 1.126.313 1.195.725l.611 6.8c0 .673-.798 1.225-1.803 1.225-1.002 0-1.803-.552-1.803-1.226l.608-6.8c.07-.411.577-.724 1.192-.724zm3.775-7.753l5.672-3.92c.587-.338 1.475.067 1.979.925.501.858.415 1.814-.176 2.15l-6.283 2.884c-.394.143-.926-.13-1.233-.657-.308-.528-.284-1.117.041-1.382zm-8.74 2.039L86.868 9.15c-.587-.337-.677-1.293-.176-2.151.5-.858 1.388-1.263 1.976-.926l5.672 3.921c.328.262.349.854.041 1.382-.307.527-.84.8-1.233.657zm3.773-3.506l-.608-6.8c0-.674.798-1.225 1.803-1.225s1.803.551 1.803 1.225l-.611 6.8c-.07.409-.577.725-1.195.725-.615 0-1.123-.316-1.192-.725zM111.071 20.9v-.17h.155c.052 0 .087.034.087.085a.083.083 0 01-.087.085h-.155zm-.128.31c0 .017.014.034.035.034h.065c.018 0 .035-.017.035-.034v-.194h.107l.086.204c.007.014.018.024.031.024h.08a.034.034 0 00.031-.048c-.031-.06-.062-.126-.093-.19a.188.188 0 00.131-.19c0-.13-.107-.205-.214-.205h-.259c-.018 0-.035.017-.035.034v.565zm-.28-.282c0-.276.228-.5.508-.5s.508.22.508.5c0 .275-.225.5-.508.5a.503.503 0 01-.508-.5zm-.12 0c0 .34.279.619.628.619.346 0 .629-.28.629-.62 0-.34-.283-.619-.629-.619a.623.623 0 00-.628.62z"/></g><defs><clipPath id="bkclip0_34_611"><path fill="#fff" transform="translate(.8 .503)" d="M0 0h111v25.995H0z"/></clipPath></defs></svg></svg>